<?xml version="1.0" encoding="utf-8"?>
<!-- Generator: Adobe Illustrator 27.7.0, SVG Export Plug-In . SVG Version: 6.00 Build 0)  -->
<svg version="1.1" xmlns="http://www.w3.org/2000/svg" xmlns:xlink="http://www.w3.org/1999/xlink" x="0px" y="0px"
	 viewBox="0 0 130 150" style="enable-background:new 0 0 130 150;" xml:space="preserve">
<style type="text/css">
	.st0{fill:#FFFFFF;}
	.st1{fill:#F2F3F2;}
	.st2{fill:#DCDEDC;}
	.st3{fill:#FF492C;}
	.st4{fill:#2690CE;}
	.st5{fill:#252530;}
</style>
<g id="Layer_1">
	<path class="st0" d="M14.4,112.7L66,138.9l49.6-26.2V10.1H14.4V112.7z"/>
	<path class="st1" d="M116.6,10.5l-103.2,104L66.9,141l49.7-25.4L116.6,10.5z"/>
	<path class="st2" d="M11,44.3v70.6l1.8,0.9L64.4,142l1.6,0.8l1.6-0.8l49.7-26.2l1.8-0.9V6.7H11V44.3z M14.4,112.9V10.1h101.2v102.8
		L66,139.1L14.4,112.9z"/>
	<path class="st3" d="M65.1,11.8c0.5,0,1,0,1.6,0.1l-1.6,3c-2.3-0.1-4.4,1.7-4.6,4c-0.1,2.3,1.7,4.4,4,4.6h0.5c1,0,2.1-0.4,2.9-1
		l1.7,2.9c-1.3,0.9-2.9,1.4-4.6,1.4c-4.2,0.1-7.7-3-7.8-7.2c-0.1-4.2,3-7.7,7.2-7.8C64.4,11.8,65.1,11.8,65.1,11.8z M70.4,18.2
		l2,3.3l-2,3.1l-1.8-3.1h-3.8l2-3.3H70.4z M67.3,17c0-0.5,0.1-1,0.4-1.4s0.8-0.8,1.2-1l0.3-0.1c0.5-0.3,0.7-0.4,0.7-0.7
		c0-0.3-0.4-0.5-0.7-0.5c-0.5,0-0.9,0.3-1.2,0.8l-0.7-0.7c0.1-0.3,0.4-0.5,0.7-0.8c0.4-0.3,0.8-0.3,1.2-0.3c0.4,0,0.9,0.1,1.2,0.4
		c0.3,0.3,0.5,0.7,0.5,1c0,0.7-0.4,1.2-1.2,1.4l-0.4,0.3c-0.4,0.3-0.7,0.4-0.8,0.8h2.3v0.9C70.8,17.2,67.3,17,67.3,17z M65.1,33.3
		l12.4-7V6.7H52.5v19.4C52.5,26.2,65.1,33.3,65.1,33.3z"/>
	<path class="st4" d="M121.5,79.5H8.6l-4.2,9.1l4.2,9.1h113l4-9.1L121.5,79.5z"/>
	<path class="st5" d="M19.9,73.7c0,0-0.1,0-0.1-0.1c0,0-0.1-0.1-0.1-0.1v-8.8c0,0,0-0.1,0.1-0.1c0,0,0.1-0.1,0.1-0.1h1.5
		c0,0,0.1,0,0.1,0.1c0,0,0,0.1,0,0.1v8.8c0,0,0,0.1,0,0.1c0,0-0.1,0.1-0.1,0.1H19.9z M30.5,66.8c0.7,0,1.2,0.2,1.6,0.6
		c0.4,0.4,0.6,1,0.6,1.7v4.3c0,0,0,0.1-0.1,0.1c0,0-0.1,0.1-0.1,0.1H31c0,0-0.1,0-0.1-0.1c0,0,0-0.1,0-0.1v-3.9
		c0-0.4-0.1-0.6-0.3-0.8c-0.2-0.2-0.4-0.3-0.7-0.3s-0.6,0.1-0.7,0.3s-0.3,0.5-0.3,0.8v3.9c0,0,0,0.1-0.1,0.1c0,0-0.1,0.1-0.1,0.1
		h-1.5c0,0-0.1,0-0.1-0.1c0,0,0-0.1,0-0.1v-3.9c0-0.3-0.1-0.6-0.3-0.8c-0.2-0.2-0.4-0.3-0.7-0.3c-0.3,0-0.5,0.1-0.7,0.2
		c-0.2,0.2-0.3,0.4-0.3,0.7v4.1c0,0,0,0.1,0,0.1c0,0-0.1,0.1-0.1,0.1h-1.5c0,0-0.1,0-0.1-0.1c0,0-0.1-0.1-0.1-0.1v-6.4
		c0,0,0-0.1,0.1-0.1c0,0,0.1,0,0.1,0h1.5c0,0,0.1,0,0.1,0c0,0,0,0.1,0,0.1v0.5c0,0,0,0,0,0.1c0,0,0,0,0.1,0c0.4-0.5,0.9-0.8,1.7-0.8
		c0.4,0,0.8,0.1,1.1,0.3c0.3,0.2,0.6,0.4,0.8,0.8c0,0.1,0.1,0.1,0.1,0c0.2-0.4,0.4-0.6,0.8-0.8C29.7,66.9,30.1,66.8,30.5,66.8
		L30.5,66.8z M39.9,68.7c0.2,0.4,0.2,1,0.2,1.6c0,0.6-0.1,1.1-0.2,1.6c-0.2,0.6-0.5,1-0.9,1.3c-0.4,0.3-1,0.5-1.6,0.5
		c-0.6,0-1.1-0.2-1.5-0.7c0,0,0,0-0.1,0c0,0,0,0,0,0.1v2.8c0,0,0,0.1,0,0.1c0,0-0.1,0.1-0.1,0.1h-1.5c0,0-0.1,0-0.1-0.1
		c0,0-0.1-0.1-0.1-0.1v-8.8c0,0,0-0.1,0.1-0.1c0,0,0.1,0,0.1,0h1.5c0,0,0.1,0,0.1,0c0,0,0,0.1,0,0.1v0.4c0,0,0,0,0,0c0,0,0,0,0.1,0
		c0.4-0.5,0.9-0.7,1.5-0.7c0.6,0,1.1,0.2,1.6,0.5C39.4,67.7,39.7,68.1,39.9,68.7z M37.9,71.7c0.2-0.3,0.3-0.8,0.3-1.4
		c0-0.5-0.1-1-0.3-1.3c-0.2-0.4-0.5-0.6-1-0.6c-0.4,0-0.7,0.2-0.9,0.6c-0.2,0.3-0.3,0.8-0.3,1.3c0,0.6,0.1,1,0.3,1.4
		c0.2,0.3,0.5,0.5,0.9,0.5C37.4,72.2,37.7,72,37.9,71.7z M41.5,73.7c0,0-0.1,0-0.1-0.1c0,0,0-0.1,0-0.1v-8.8c0,0,0-0.1,0-0.1
		c0,0,0.1-0.1,0.1-0.1H43c0,0,0.1,0,0.1,0.1c0,0,0.1,0.1,0.1,0.1v8.8c0,0,0,0.1-0.1,0.1c0,0-0.1,0.1-0.1,0.1H41.5z M50.5,69.6
		c0.1,0.3,0.1,0.7,0.1,1.1c0,0.1-0.1,0.2-0.2,0.2h-4c-0.1,0-0.1,0-0.1,0.1c0,0.2,0.1,0.3,0.1,0.5c0.2,0.5,0.7,0.7,1.4,0.7
		c0.6,0,1-0.2,1.3-0.7c0-0.1,0.1-0.1,0.1-0.1c0,0,0.1,0,0.1,0.1l0.9,0.9c0,0,0.1,0.1,0.1,0.1c0,0,0,0.1-0.1,0.1
		c-0.3,0.4-0.7,0.6-1.1,0.8c-0.5,0.2-0.9,0.3-1.5,0.3c-0.7,0-1.4-0.2-1.9-0.5c-0.5-0.3-0.9-0.8-1.1-1.4c-0.2-0.4-0.3-1-0.3-1.7
		c0-0.5,0.1-0.9,0.2-1.3c0.2-0.6,0.5-1.1,1-1.5c0.5-0.4,1.1-0.5,1.8-0.5c0.9,0,1.6,0.3,2.1,0.8C50,68.1,50.4,68.8,50.5,69.6z
		 M47.4,68.4c-0.5,0-0.9,0.3-1.1,0.8c0,0.1-0.1,0.3-0.1,0.4c0,0,0,0.1,0.1,0.1h2.3c0.1,0,0.1,0,0.1-0.1c0-0.3-0.1-0.4-0.1-0.4
		c-0.1-0.3-0.2-0.5-0.4-0.6C48,68.5,47.7,68.4,47.4,68.4z M59.1,66.8c0.7,0,1.2,0.2,1.6,0.6c0.4,0.4,0.6,1,0.6,1.7v4.3
		c0,0,0,0.1,0,0.1c0,0-0.1,0.1-0.1,0.1h-1.5c0,0-0.1,0-0.1-0.1c0,0-0.1-0.1-0.1-0.1v-3.9c0-0.4-0.1-0.6-0.3-0.8s-0.4-0.3-0.7-0.3
		s-0.6,0.1-0.7,0.3c-0.2,0.2-0.3,0.5-0.3,0.8v3.9c0,0,0,0.1,0,0.1c0,0-0.1,0.1-0.1,0.1h-1.5c0,0-0.1,0-0.1-0.1c0,0-0.1-0.1-0.1-0.1
		v-3.9c0-0.3-0.1-0.6-0.3-0.8c-0.2-0.2-0.4-0.3-0.7-0.3c-0.3,0-0.5,0.1-0.7,0.2c-0.2,0.2-0.3,0.4-0.3,0.7v4.1c0,0,0,0.1,0,0.1
		c0,0-0.1,0.1-0.1,0.1h-1.5c0,0-0.1,0-0.1-0.1c0,0-0.1-0.1-0.1-0.1v-6.4c0,0,0-0.1,0.1-0.1c0,0,0.1,0,0.1,0h1.5c0,0,0.1,0,0.1,0
		c0,0,0,0.1,0,0.1v0.5c0,0,0,0,0,0.1c0,0,0,0,0.1,0c0.4-0.5,0.9-0.8,1.7-0.8c0.4,0,0.8,0.1,1.1,0.3c0.3,0.2,0.6,0.4,0.7,0.8
		c0,0.1,0.1,0.1,0.1,0c0.2-0.4,0.5-0.6,0.8-0.8C58.3,66.9,58.7,66.8,59.1,66.8L59.1,66.8z M68.4,69.6c0.1,0.3,0.1,0.7,0.1,1.1
		c0,0.1-0.1,0.2-0.2,0.2h-4c-0.1,0-0.1,0-0.1,0.1c0,0.2,0.1,0.3,0.1,0.5c0.2,0.5,0.7,0.7,1.4,0.7c0.6,0,1-0.2,1.3-0.7
		c0-0.1,0.1-0.1,0.1-0.1c0,0,0.1,0,0.1,0.1l0.9,0.9c0,0,0.1,0.1,0.1,0.1c0,0,0,0.1-0.1,0.1c-0.3,0.4-0.7,0.6-1.1,0.8
		c-0.5,0.2-0.9,0.3-1.5,0.3c-0.7,0-1.4-0.2-1.9-0.5c-0.5-0.3-0.9-0.8-1.1-1.4c-0.2-0.4-0.3-1-0.3-1.7c0-0.5,0.1-0.9,0.2-1.3
		c0.2-0.6,0.6-1.1,1.1-1.5c0.5-0.4,1.1-0.5,1.8-0.5c0.9,0,1.6,0.3,2.1,0.8C68,68.1,68.3,68.8,68.4,69.6z M65.4,68.4
		c-0.5,0-0.9,0.3-1.1,0.8c0,0.1-0.1,0.3-0.1,0.4c0,0,0,0.1,0.1,0.1h2.3c0.1,0,0.1,0,0.1-0.1c0-0.3-0.1-0.4-0.1-0.4
		c-0.1-0.3-0.2-0.5-0.4-0.6C65.9,68.5,65.7,68.4,65.4,68.4z M73.1,66.8c0.7,0,1.3,0.2,1.7,0.6c0.4,0.4,0.6,1,0.6,1.7v4.3
		c0,0,0,0.1,0,0.1c0,0-0.1,0.1-0.1,0.1h-1.5c0,0-0.1,0-0.1-0.1c0,0-0.1-0.1-0.1-0.1v-3.9c0-0.3-0.1-0.6-0.3-0.8
		c-0.2-0.2-0.5-0.3-0.8-0.3s-0.6,0.1-0.8,0.3c-0.2,0.2-0.3,0.5-0.3,0.8v3.9c0,0,0,0.1,0,0.1c0,0-0.1,0.1-0.1,0.1h-1.5
		c0,0-0.1,0-0.1-0.1c0,0-0.1-0.1-0.1-0.1v-6.4c0,0,0-0.1,0.1-0.1c0,0,0.1,0,0.1,0h1.5c0,0,0.1,0,0.1,0c0,0,0,0.1,0,0.1v0.5
		c0,0,0,0,0,0.1c0,0,0,0,0,0C71.9,67.1,72.4,66.8,73.1,66.8z M80.6,68.3c0,0,0,0.1,0,0.1c0,0-0.1,0-0.1,0h-1.3c0,0-0.1,0-0.1,0.1
		v2.8c0,0.3,0.1,0.5,0.2,0.6c0.1,0.1,0.3,0.2,0.6,0.2h0.4c0,0,0.1,0,0.1,0c0,0,0,0.1,0,0.1v1.2c0,0.1-0.1,0.2-0.2,0.2
		c-0.4,0-0.6,0-0.8,0c-0.7,0-1.3-0.1-1.6-0.4c-0.4-0.2-0.5-0.7-0.5-1.4v-3.5c0,0,0-0.1-0.1-0.1h-0.7c0,0-0.1,0-0.1,0
		c0,0-0.1-0.1-0.1-0.1v-1.2c0,0,0-0.1,0.1-0.1c0,0,0.1,0,0.1,0h0.7c0,0,0.1,0,0.1-0.1v-1.6c0,0,0-0.1,0.1-0.1c0,0,0.1-0.1,0.1-0.1
		H79c0,0,0.1,0,0.1,0.1c0,0,0,0.1,0,0.1v1.6c0,0,0,0.1,0.1,0.1h1.3c0,0,0.1,0,0.1,0c0,0,0,0.1,0,0.1C80.6,67.1,80.6,68.3,80.6,68.3z
		 M84.4,66.8c0.6,0,1.1,0.1,1.5,0.3c0.4,0.2,0.8,0.5,1,0.8c0.3,0.3,0.4,0.7,0.4,1.1v4.4c0,0,0,0.1-0.1,0.1c0,0-0.1,0.1-0.1,0.1h-1.5
		c0,0-0.1,0-0.1-0.1c0,0-0.1-0.1-0.1-0.1v-0.4c0,0,0,0,0-0.1c0,0,0,0-0.1,0c-0.4,0.5-1,0.7-1.8,0.7c-0.7,0-1.2-0.2-1.6-0.5
		c-0.4-0.3-0.6-0.8-0.6-1.5c0-0.7,0.2-1.2,0.7-1.6c0.5-0.4,1.1-0.5,2-0.5h1.3c0,0,0.1,0,0.1-0.1v-0.3c0-0.3-0.1-0.5-0.3-0.7
		c-0.2-0.2-0.4-0.2-0.8-0.2c-0.3,0-0.5,0-0.7,0.1c-0.2,0.1-0.3,0.2-0.4,0.4c0,0.1-0.1,0.1-0.2,0.1l-1.6-0.2c-0.1,0-0.2-0.1-0.1-0.1
		c0-0.4,0.2-0.7,0.4-1c0.3-0.3,0.6-0.5,1-0.7C83.4,66.9,83.9,66.8,84.4,66.8z M84.1,72.4c0.4,0,0.7-0.1,1-0.3s0.4-0.5,0.4-0.8v-0.5
		c0,0,0-0.1-0.1-0.1h-0.9c-0.4,0-0.7,0.1-0.9,0.2c-0.2,0.1-0.3,0.4-0.3,0.6c0,0.2,0.1,0.4,0.2,0.5C83.6,72.3,83.9,72.4,84.1,72.4z
		 M92.3,68.3c0,0,0,0.1,0,0.1c0,0-0.1,0-0.1,0h-1.3c0,0-0.1,0-0.1,0.1v2.8c0,0.3,0.1,0.5,0.2,0.6c0.1,0.1,0.3,0.2,0.6,0.2H92
		c0,0,0.1,0,0.1,0c0,0,0,0.1,0,0.1v1.2c0,0.1-0.1,0.2-0.2,0.2c-0.4,0-0.6,0-0.8,0c-0.7,0-1.3-0.1-1.6-0.4c-0.4-0.2-0.5-0.7-0.5-1.4
		v-3.5c0,0,0-0.1-0.1-0.1h-0.7c0,0-0.1,0-0.1,0c0,0,0-0.1,0-0.1v-1.2c0,0,0-0.1,0-0.1c0,0,0.1,0,0.1,0H89c0,0,0.1,0,0.1-0.1v-1.6
		c0,0,0-0.1,0.1-0.1c0,0,0.1-0.1,0.1-0.1h1.5c0,0,0.1,0,0.1,0.1c0,0,0,0.1,0,0.1v1.6c0,0,0,0.1,0.1,0.1h1.3c0,0,0.1,0,0.1,0
		c0,0,0,0.1,0,0.1V68.3z M94.4,66.2c-0.3,0-0.5-0.1-0.7-0.3c-0.2-0.2-0.3-0.4-0.3-0.7c0-0.3,0.1-0.6,0.3-0.7
		c0.2-0.2,0.4-0.3,0.7-0.3c0.3,0,0.6,0.1,0.7,0.3c0.2,0.2,0.3,0.4,0.3,0.7c0,0.3-0.1,0.5-0.3,0.7C95,66.1,94.7,66.2,94.4,66.2z
		 M93.6,73.7c0,0-0.1,0-0.1-0.1c0,0,0-0.1,0-0.1v-6.4c0,0,0-0.1,0-0.1c0,0,0.1,0,0.1,0h1.5c0,0,0.1,0,0.1,0c0,0,0,0.1,0,0.1v6.4
		c0,0,0,0.1,0,0.1c0,0-0.1,0.1-0.1,0.1H93.6z M99.7,73.8c-0.7,0-1.4-0.2-1.9-0.6c-0.5-0.4-0.9-0.9-1.1-1.6c-0.1-0.4-0.2-0.9-0.2-1.3
		c0-0.5,0.1-1,0.2-1.4c0.2-0.6,0.6-1.1,1.1-1.5c0.5-0.4,1.1-0.5,1.9-0.5c0.7,0,1.3,0.2,1.8,0.5c0.5,0.4,0.9,0.9,1.1,1.5
		c0.1,0.4,0.2,0.9,0.2,1.4c0,0.5-0.1,0.9-0.2,1.3c-0.2,0.7-0.5,1.2-1.1,1.6C101.1,73.6,100.5,73.8,99.7,73.8z M99.7,72.2
		c0.3,0,0.5-0.1,0.7-0.3c0.2-0.2,0.3-0.4,0.4-0.7c0.1-0.3,0.1-0.6,0.1-0.9c0-0.4,0-0.7-0.1-0.9c-0.1-0.3-0.2-0.5-0.4-0.7
		c-0.2-0.2-0.4-0.2-0.7-0.2c-0.3,0-0.5,0.1-0.7,0.2c-0.2,0.2-0.3,0.4-0.4,0.7c-0.1,0.2-0.1,0.5-0.1,0.9c0,0.4,0,0.7,0.1,0.9
		c0.1,0.3,0.2,0.5,0.4,0.7C99.2,72.1,99.4,72.2,99.7,72.2z M107.5,66.8c0.7,0,1.3,0.2,1.7,0.6c0.4,0.4,0.6,1,0.6,1.7v4.3
		c0,0,0,0.1-0.1,0.1c0,0-0.1,0.1-0.1,0.1h-1.5c0,0-0.1,0-0.1-0.1c0,0,0-0.1,0-0.1v-3.9c0-0.3-0.1-0.6-0.3-0.8
		c-0.2-0.2-0.4-0.3-0.8-0.3c-0.3,0-0.6,0.1-0.8,0.3c-0.2,0.2-0.3,0.5-0.3,0.8v3.9c0,0,0,0.1-0.1,0.1c0,0-0.1,0.1-0.1,0.1h-1.5
		c0,0-0.1,0-0.1-0.1c0,0,0-0.1,0-0.1v-6.4c0,0,0-0.1,0-0.1c0,0,0.1,0,0.1,0h1.5c0,0,0.1,0,0.1,0c0,0,0.1,0.1,0.1,0.1v0.5
		c0,0,0,0,0,0.1c0,0,0,0,0,0C106.3,67.1,106.8,66.8,107.5,66.8z M50,52.9c0,0,0,0.1-0.1,0.1c0,0-0.1,0.1-0.1,0.1h-4.3
		c0,0-0.1,0-0.1,0.1v2c0,0,0,0.1,0.1,0.1h2.8c0,0,0.1,0,0.1,0c0,0,0.1,0.1,0.1,0.1v1.3c0,0,0,0.1-0.1,0.1c0,0-0.1,0-0.1,0h-2.8
		c0,0-0.1,0-0.1,0.1v3.6c0,0,0,0.1,0,0.1c0,0-0.1,0.1-0.1,0.1h-1.5c0,0-0.1,0-0.1-0.1c0,0-0.1-0.1-0.1-0.1v-8.8c0,0,0-0.1,0.1-0.1
		c0,0,0.1-0.1,0.1-0.1h6c0,0,0.1,0,0.1,0.1c0,0,0.1,0.1,0.1,0.1C50,51.6,50,52.9,50,52.9z M52.9,53.8c0.6,0,1.1,0.1,1.5,0.3
		c0.4,0.2,0.8,0.5,1,0.8c0.2,0.3,0.4,0.7,0.4,1.1v4.4c0,0,0,0.1,0,0.1c0,0-0.1,0.1-0.1,0.1h-1.5c0,0-0.1,0-0.1-0.1c0,0,0-0.1,0-0.1
		V60c0,0,0,0,0-0.1c0,0,0,0-0.1,0c-0.4,0.5-1,0.7-1.8,0.7c-0.7,0-1.2-0.2-1.6-0.5c-0.4-0.3-0.6-0.8-0.6-1.5c0-0.7,0.2-1.2,0.7-1.6
		c0.5-0.4,1.1-0.5,2-0.5h1.3c0,0,0.1,0,0.1-0.1v-0.3c0-0.3-0.1-0.5-0.3-0.7c-0.2-0.2-0.4-0.2-0.8-0.2c-0.3,0-0.5,0-0.7,0.1
		c-0.2,0.1-0.3,0.2-0.4,0.4c0,0.1-0.1,0.1-0.2,0.1l-1.6-0.2c-0.1,0-0.2-0.1-0.1-0.1c0-0.4,0.2-0.7,0.4-1c0.3-0.3,0.6-0.5,1-0.7
		C51.9,53.9,52.4,53.8,52.9,53.8z M52.6,59.3c0.4,0,0.7-0.1,1-0.3c0.3-0.2,0.4-0.5,0.4-0.8v-0.5c0,0,0-0.1-0.1-0.1H53
		c-0.4,0-0.7,0.1-0.9,0.2c-0.2,0.1-0.3,0.4-0.3,0.6c0,0.2,0.1,0.4,0.2,0.5C52.1,59.3,52.3,59.3,52.6,59.3z M59.8,60.7
		c-0.6,0-1.1-0.1-1.5-0.2c-0.4-0.2-0.8-0.4-1-0.7c-0.2-0.3-0.4-0.6-0.4-1v-0.1c0,0,0-0.1,0.1-0.1c0,0,0.1-0.1,0.1-0.1h1.4
		c0,0,0.1,0,0.1,0.1c0,0,0.1,0.1,0.1,0.1v0c0,0.2,0.1,0.4,0.3,0.5c0.2,0.1,0.5,0.2,0.8,0.2c0.3,0,0.5-0.1,0.7-0.2
		c0.2-0.1,0.3-0.3,0.3-0.4c0-0.2-0.1-0.3-0.2-0.4c-0.2-0.1-0.4-0.2-0.8-0.2c-0.4-0.1-0.7-0.2-1-0.3c-0.6-0.2-1-0.4-1.3-0.7
		c-0.3-0.3-0.5-0.7-0.5-1.2c0-0.6,0.3-1.2,0.8-1.5c0.5-0.4,1.2-0.6,2-0.6c0.6,0,1,0.1,1.5,0.3c0.4,0.2,0.7,0.4,1,0.7
		c0.2,0.3,0.3,0.7,0.3,1.1c0,0,0,0.1,0,0.1c0,0-0.1,0-0.1,0h-1.4c0,0-0.1,0-0.1,0c0,0-0.1-0.1-0.1-0.1c0-0.2-0.1-0.4-0.3-0.5
		c-0.2-0.1-0.5-0.2-0.8-0.2c-0.3,0-0.5,0.1-0.7,0.2c-0.2,0.1-0.3,0.2-0.3,0.4c0,0.2,0.1,0.3,0.3,0.4c0.2,0.1,0.5,0.2,0.9,0.3
		l0.3,0.1c0.1,0,0.3,0.1,0.4,0.1c0.6,0.2,1.1,0.4,1.5,0.7c0.4,0.3,0.5,0.7,0.5,1.3c0,0.6-0.3,1.1-0.8,1.5
		C61.3,60.5,60.6,60.7,59.8,60.7z M67.5,55.2c0,0,0,0.1,0,0.1c0,0-0.1,0-0.1,0h-1.3c0,0-0.1,0-0.1,0.1v2.8c0,0.3,0.1,0.5,0.2,0.6
		c0.1,0.1,0.3,0.2,0.6,0.2h0.4c0,0,0.1,0,0.1,0c0,0,0,0.1,0,0.1v1.2c0,0.1-0.1,0.2-0.2,0.2c-0.4,0-0.6,0-0.8,0
		c-0.7,0-1.3-0.1-1.6-0.4c-0.4-0.2-0.5-0.7-0.5-1.4v-3.5c0,0,0-0.1-0.1-0.1h-0.7c0,0-0.1,0-0.1,0c0,0-0.1-0.1-0.1-0.1v-1.2
		c0,0,0-0.1,0.1-0.1c0,0,0.1,0,0.1,0h0.7c0,0,0.1,0,0.1-0.1v-1.6c0,0,0-0.1,0-0.1c0,0,0.1-0.1,0.1-0.1h1.5c0,0,0.1,0,0.1,0.1
		c0,0,0,0.1,0,0.1v1.6c0,0,0,0.1,0.1,0.1h1.3c0,0,0.1,0,0.1,0c0,0,0,0.1,0,0.1V55.2z M74.4,56.6c0.1,0.3,0.1,0.7,0.1,1.1
		c0,0.1-0.1,0.2-0.2,0.2h-4c-0.1,0-0.1,0-0.1,0.1c0,0.2,0.1,0.3,0.1,0.5c0.2,0.5,0.7,0.7,1.4,0.7c0.6,0,1-0.2,1.3-0.7
		c0-0.1,0.1-0.1,0.1-0.1c0,0,0.1,0,0.1,0.1l0.9,0.9c0,0,0.1,0.1,0.1,0.1c0,0,0,0.1-0.1,0.1c-0.3,0.4-0.7,0.6-1.1,0.8
		c-0.5,0.2-0.9,0.3-1.5,0.3c-0.7,0-1.4-0.2-1.9-0.5c-0.5-0.3-0.9-0.8-1.1-1.4c-0.2-0.4-0.3-1-0.3-1.7c0-0.5,0.1-0.9,0.2-1.3
		c0.2-0.6,0.5-1.1,1-1.5c0.5-0.4,1.1-0.5,1.8-0.5c0.9,0,1.6,0.3,2.1,0.8C74,55,74.3,55.7,74.4,56.6z M71.4,55.4
		c-0.5,0-0.9,0.3-1.1,0.8c0,0.1-0.1,0.3-0.1,0.4c0,0,0,0.1,0.1,0.1h2.3c0.1,0,0.1,0,0.1-0.1c0-0.3-0.1-0.4-0.1-0.4
		c-0.1-0.3-0.2-0.5-0.4-0.6C71.9,55.4,71.7,55.4,71.4,55.4z M78.2,60.7c-0.6,0-1.1-0.1-1.5-0.2c-0.4-0.2-0.8-0.4-1-0.7
		c-0.2-0.3-0.4-0.6-0.4-1v-0.1c0,0,0-0.1,0.1-0.1c0,0,0.1-0.1,0.1-0.1h1.4c0,0,0.1,0,0.1,0.1c0,0,0.1,0.1,0.1,0.1v0
		c0,0.2,0.1,0.4,0.3,0.5c0.2,0.1,0.5,0.2,0.8,0.2c0.3,0,0.5-0.1,0.7-0.2c0.2-0.1,0.3-0.3,0.3-0.4c0-0.2-0.1-0.3-0.2-0.4
		c-0.2-0.1-0.4-0.2-0.8-0.2c-0.4-0.1-0.7-0.2-1-0.3c-0.6-0.2-1-0.4-1.3-0.7c-0.3-0.3-0.5-0.7-0.5-1.2c0-0.6,0.2-1.2,0.7-1.5
		c0.5-0.4,1.2-0.6,2-0.6c0.6,0,1,0.1,1.5,0.3c0.4,0.2,0.7,0.4,1,0.7c0.2,0.3,0.4,0.7,0.4,1.1c0,0,0,0.1,0,0.1c0,0-0.1,0-0.1,0h-1.4
		c0,0-0.1,0-0.1,0c0,0,0-0.1,0-0.1c0-0.2-0.1-0.4-0.3-0.5c-0.2-0.1-0.5-0.2-0.8-0.2c-0.3,0-0.5,0.1-0.7,0.2
		c-0.2,0.1-0.3,0.2-0.3,0.4c0,0.2,0.1,0.3,0.3,0.4c0.2,0.1,0.5,0.2,0.9,0.3l0.3,0.1c0.1,0,0.3,0.1,0.4,0.1c0.6,0.2,1.1,0.4,1.5,0.7
		c0.4,0.3,0.5,0.7,0.5,1.3c0,0.6-0.3,1.1-0.8,1.5C79.8,60.5,79.1,60.7,78.2,60.7z M85.9,55.2c0,0,0,0.1-0.1,0.1c0,0-0.1,0-0.1,0
		h-1.3c0,0-0.1,0-0.1,0.1v2.8c0,0.3,0.1,0.5,0.2,0.6c0.1,0.1,0.3,0.2,0.6,0.2h0.4c0,0,0.1,0,0.1,0c0,0,0.1,0.1,0.1,0.1v1.2
		c0,0.1-0.1,0.2-0.2,0.2c-0.4,0-0.6,0-0.8,0c-0.7,0-1.3-0.1-1.6-0.4c-0.4-0.2-0.5-0.7-0.5-1.4v-3.5c0,0,0-0.1-0.1-0.1h-0.7
		c0,0-0.1,0-0.1,0c0,0,0-0.1,0-0.1v-1.2c0,0,0-0.1,0-0.1c0,0,0.1,0,0.1,0h0.7c0,0,0.1,0,0.1-0.1v-1.6c0,0,0-0.1,0-0.1
		c0,0,0.1-0.1,0.1-0.1h1.5c0,0,0.1,0,0.1,0.1c0,0,0.1,0.1,0.1,0.1v1.6c0,0,0,0.1,0.1,0.1h1.3c0,0,0.1,0,0.1,0c0,0,0.1,0.1,0.1,0.1
		C85.9,54.1,85.9,55.2,85.9,55.2z"/>
	<path class="st0" d="M41.4,85.8c0,0,0,0.1,0,0.1c0,0-0.1,0.1-0.1,0.1h-4.4c0,0-0.1,0-0.1,0.1v2.4c0,0,0,0.1,0.1,0.1h3
		c0,0,0.1,0,0.1,0c0,0,0,0.1,0,0.1v1c0,0,0,0.1,0,0.1c0,0-0.1,0-0.1,0h-3c0,0-0.1,0-0.1,0.1v2.5c0,0,0,0.1,0.1,0.1h4.4
		c0,0,0.1,0,0.1,0.1c0,0,0,0.1,0,0.1v1c0,0,0,0.1,0,0.1c0,0-0.1,0.1-0.1,0.1h-5.9c0,0-0.1,0-0.1-0.1c0,0-0.1-0.1-0.1-0.1v-8.8
		c0,0,0-0.1,0.1-0.1c0,0,0.1-0.1,0.1-0.1h5.9c0,0,0.1,0,0.1,0.1c0,0,0,0.1,0,0.1V85.8L41.4,85.8z M46,87c0.7,0,1.3,0.2,1.7,0.6
		c0.4,0.4,0.6,1,0.6,1.7v4.3c0,0,0,0.1-0.1,0.1c0,0-0.1,0.1-0.1,0.1h-1.2c0,0-0.1,0-0.1-0.1c0,0,0-0.1,0-0.1v-4c0-0.4-0.1-0.7-0.3-1
		c-0.2-0.2-0.5-0.4-0.9-0.4c-0.4,0-0.7,0.1-0.9,0.4c-0.2,0.2-0.3,0.6-0.3,1v4c0,0,0,0.1,0,0.1c0,0-0.1,0.1-0.1,0.1h-1.2
		c0,0-0.1,0-0.1-0.1c0,0-0.1-0.1-0.1-0.1v-6.4c0,0,0-0.1,0.1-0.1c0,0,0.1,0,0.1,0h1.2c0,0,0.1,0,0.1,0c0,0,0,0.1,0,0.1v0.4
		c0,0,0,0,0,0.1s0,0,0,0C44.7,87.2,45.2,87,46,87z M53.4,88.1c0,0,0,0.1-0.1,0.1c0,0-0.1,0.1-0.1,0.1h-1.3c0,0-0.1,0-0.1,0.1v3.1
		c0,0.3,0.1,0.6,0.2,0.7c0.1,0.1,0.4,0.2,0.7,0.2h0.4c0,0,0.1,0,0.1,0c0,0,0.1,0.1,0.1,0.1v1c0,0.1-0.1,0.2-0.2,0.2l-0.7,0
		c-0.7,0-1.2-0.1-1.5-0.4c-0.3-0.2-0.5-0.7-0.5-1.3v-3.7c0,0,0-0.1-0.1-0.1h-0.7c0,0-0.1,0-0.1-0.1c0,0,0-0.1,0-0.1v-0.9
		c0,0,0-0.1,0-0.1c0,0,0.1,0,0.1,0h0.7c0,0,0.1,0,0.1-0.1v-1.5c0,0,0-0.1,0-0.1c0,0,0.1,0,0.1,0h1.1c0,0,0.1,0,0.1,0
		c0,0,0.1,0.1,0.1,0.1V87c0,0,0,0.1,0.1,0.1h1.3c0,0,0.1,0,0.1,0c0,0,0.1,0.1,0.1,0.1C53.4,87.2,53.4,88.1,53.4,88.1z M60.2,89.7
		c0,0.2,0.1,0.5,0.1,0.7l0,0.4c0,0.1-0.1,0.2-0.2,0.2H56c0,0-0.1,0-0.1,0.1c0,0.3,0.1,0.5,0.1,0.6c0.2,0.6,0.7,0.9,1.5,1
		c0.6,0,1.1-0.2,1.4-0.7c0-0.1,0.1-0.1,0.1-0.1c0,0,0.1,0,0.1,0l0.8,0.7c0.1,0.1,0.1,0.1,0,0.2c-0.3,0.4-0.6,0.7-1.1,0.9
		c-0.5,0.2-1,0.3-1.5,0.3c-0.7,0-1.3-0.2-1.7-0.5c-0.5-0.3-0.8-0.7-1-1.3c-0.2-0.5-0.3-1.1-0.3-2c0-0.5,0.1-0.9,0.2-1.2
		c0.2-0.6,0.5-1.1,1-1.4c0.5-0.3,1.1-0.5,1.7-0.5C59,87,60,87.9,60.2,89.7z M57.3,88.3c-0.3,0-0.6,0.1-0.8,0.2
		c-0.2,0.2-0.4,0.4-0.4,0.7C56,89.3,56,89.5,56,89.8c0,0,0,0.1,0.1,0.1h2.6c0,0,0.1,0,0.1-0.1c0-0.2,0-0.4-0.1-0.5
		c-0.1-0.3-0.2-0.6-0.5-0.7C58,88.4,57.7,88.3,57.3,88.3L57.3,88.3z M64.8,87c0.3,0,0.5,0.1,0.7,0.2c0.1,0,0.1,0.1,0.1,0.2l-0.2,1.2
		c0,0.1-0.1,0.1-0.2,0.1c-0.1,0-0.3-0.1-0.5-0.1c-0.1,0-0.2,0-0.3,0c-0.4,0-0.7,0.1-0.9,0.4c-0.2,0.2-0.4,0.6-0.4,0.9v3.7
		c0,0,0,0.1,0,0.1c0,0-0.1,0.1-0.1,0.1h-1.2c0,0-0.1,0-0.1-0.1c0,0-0.1-0.1-0.1-0.1v-6.4c0,0,0-0.1,0.1-0.1c0,0,0.1,0,0.1,0H63
		c0,0,0.1,0,0.1,0c0,0,0,0.1,0,0.1v0.6c0,0,0,0.1,0,0.1c0,0,0,0,0.1,0C63.6,87.3,64.1,87,64.8,87z M72.2,88.8c0.2,0.4,0.2,1,0.2,1.6
		c0,0.6-0.1,1.1-0.2,1.6c-0.2,0.6-0.5,1-0.9,1.3c-0.4,0.3-1,0.5-1.6,0.5c-0.6,0-1.1-0.2-1.5-0.7c0,0,0,0-0.1,0c0,0,0,0,0,0.1v2.8
		c0,0,0,0.1,0,0.1c0,0-0.1,0.1-0.1,0.1h-1.2c0,0-0.1,0-0.1-0.1c0,0-0.1-0.1-0.1-0.1v-8.8c0,0,0-0.1,0.1-0.1c0,0,0.1,0,0.1,0H68
		c0,0,0.1,0,0.1,0c0,0,0,0.1,0,0.1v0.4c0,0,0,0,0,0.1c0,0,0,0,0.1,0c0.4-0.5,0.9-0.7,1.5-0.7c0.6,0,1.1,0.2,1.6,0.5
		C71.7,87.8,72,88.2,72.2,88.8z M70.5,92c0.3-0.4,0.4-0.9,0.4-1.6c0-0.6-0.1-1.1-0.3-1.5c-0.2-0.4-0.6-0.6-1.1-0.6
		c-0.5,0-0.8,0.2-1,0.6c-0.2,0.3-0.3,0.8-0.3,1.5c0,0.7,0.1,1.2,0.3,1.6c0.2,0.4,0.6,0.6,1,0.6C69.9,92.5,70.3,92.4,70.5,92z M77,87
		c0.3,0,0.5,0.1,0.7,0.2c0.1,0,0.1,0.1,0.1,0.2l-0.2,1.2c0,0.1-0.1,0.1-0.2,0.1c-0.1,0-0.3-0.1-0.5-0.1c-0.1,0-0.2,0-0.3,0
		c-0.4,0-0.7,0.1-0.9,0.4c-0.2,0.2-0.4,0.6-0.4,0.9v3.7c0,0,0,0.1,0,0.1c0,0-0.1,0.1-0.1,0.1h-1.2c0,0-0.1,0-0.1-0.1
		c0,0-0.1-0.1-0.1-0.1v-6.4c0,0,0-0.1,0.1-0.1c0,0,0.1,0,0.1,0h1.2c0,0,0.1,0,0.1,0c0,0,0,0.1,0,0.1v0.6c0,0,0,0.1,0,0.1
		c0,0,0,0,0.1,0C75.9,87.3,76.4,87,77,87z M79.7,86.2c-0.3,0-0.5-0.1-0.7-0.3s-0.3-0.4-0.3-0.7c0-0.3,0.1-0.5,0.3-0.7
		c0.2-0.2,0.4-0.3,0.7-0.3c0.3,0,0.5,0.1,0.7,0.3s0.3,0.4,0.3,0.7c0,0.3-0.1,0.5-0.3,0.7S80,86.2,79.7,86.2z M79.1,93.7
		c0,0-0.1,0-0.1-0.1c0,0-0.1-0.1-0.1-0.1v-6.4c0,0,0-0.1,0.1-0.1c0,0,0.1-0.1,0.1-0.1h1.2c0,0,0.1,0,0.1,0.1c0,0,0,0.1,0,0.1v6.4
		c0,0,0,0.1,0,0.1c0,0-0.1,0.1-0.1,0.1C80.3,93.7,79.1,93.7,79.1,93.7z M84.6,93.8c-0.5,0-1-0.1-1.4-0.2c-0.4-0.2-0.7-0.4-1-0.7
		c-0.2-0.3-0.3-0.6-0.3-0.9v-0.1c0,0,0-0.1,0-0.1c0,0,0.1,0,0.1,0h1.1c0,0,0.1,0,0.1,0c0,0,0,0.1,0,0.1v0c0,0.2,0.1,0.4,0.4,0.6
		c0.2,0.2,0.5,0.2,0.9,0.2c0.3,0,0.6-0.1,0.8-0.2c0.2-0.1,0.3-0.3,0.3-0.5c0-0.2-0.1-0.4-0.3-0.5c-0.2-0.1-0.5-0.2-0.9-0.3L84.2,91
		c-0.4-0.1-0.8-0.3-1.1-0.4c-0.3-0.1-0.6-0.4-0.8-0.6c-0.2-0.3-0.3-0.6-0.3-1c0-0.6,0.2-1.1,0.7-1.4c0.5-0.4,1.1-0.5,1.9-0.5
		c0.5,0,1,0.1,1.4,0.2c0.4,0.2,0.7,0.4,0.9,0.7c0.2,0.3,0.3,0.6,0.3,1c0,0,0,0.1,0,0.1c0,0-0.1,0-0.1,0h-1.1c0,0-0.1,0-0.1,0
		c0,0,0-0.1,0-0.1c0-0.2-0.1-0.4-0.3-0.6c-0.2-0.2-0.5-0.2-0.9-0.2c-0.3,0-0.6,0.1-0.8,0.2c-0.2,0.1-0.3,0.3-0.3,0.5
		c0,0.2,0.1,0.4,0.3,0.5c0.2,0.1,0.6,0.2,1,0.4l0.3,0.1c0.5,0.1,0.8,0.3,1.2,0.4c0.3,0.1,0.6,0.3,0.8,0.6c0.2,0.3,0.3,0.6,0.3,1
		c0,0.6-0.2,1.1-0.7,1.4C86.1,93.6,85.4,93.8,84.6,93.8z M94.2,89.7c0,0.2,0.1,0.5,0.1,0.7l0,0.4c0,0.1-0.1,0.2-0.2,0.2H90
		c0,0-0.1,0-0.1,0.1c0,0.3,0.1,0.5,0.1,0.6c0.2,0.6,0.7,0.9,1.5,1c0.6,0,1.1-0.2,1.4-0.7c0-0.1,0.1-0.1,0.1-0.1c0,0,0.1,0,0.1,0
		l0.8,0.7c0.1,0.1,0.1,0.1,0,0.2c-0.3,0.4-0.6,0.7-1.1,0.9c-0.4,0.2-0.9,0.3-1.5,0.3c-0.7,0-1.3-0.2-1.7-0.5c-0.5-0.3-0.8-0.7-1-1.3
		c-0.2-0.5-0.3-1.1-0.3-2c0-0.5,0.1-0.9,0.2-1.2c0.2-0.6,0.5-1.1,1-1.4c0.5-0.3,1.1-0.5,1.7-0.5C93,87,94,87.9,94.2,89.7L94.2,89.7z
		 M91.3,88.3c-0.3,0-0.6,0.1-0.8,0.2c-0.2,0.2-0.4,0.4-0.4,0.7c-0.1,0.1-0.1,0.3-0.1,0.6c0,0,0,0.1,0.1,0.1h2.6c0,0,0.1,0,0.1-0.1
		c0-0.2,0-0.4-0.1-0.5c-0.1-0.3-0.2-0.6-0.5-0.7C91.9,88.4,91.7,88.3,91.3,88.3L91.3,88.3z"/>
	<path class="st5" d="M56.7,104.4c0,0,0,0.1-0.1,0.1c0,0-0.1,0.1-0.1,0.1h-4.3c0,0-0.1,0-0.1,0.1v2c0,0,0,0.1,0.1,0.1h2.8
		c0,0,0.1,0,0.1,0c0,0,0.1,0.1,0.1,0.1v1.3c0,0,0,0.1-0.1,0.1c0,0-0.1,0-0.1,0h-2.8c0,0-0.1,0-0.1,0.1v3.6c0,0,0,0.1,0,0.1
		c0,0-0.1,0.1-0.1,0.1h-1.5c0,0-0.1,0-0.1-0.1c0,0-0.1-0.1-0.1-0.1v-8.8c0,0,0-0.1,0.1-0.1c0,0,0.1-0.1,0.1-0.1h6c0,0,0.1,0,0.1,0.1
		c0,0,0.1,0.1,0.1,0.1C56.7,103.2,56.7,104.4,56.7,104.4z M62.5,112.1c-0.1,0-0.1,0-0.2-0.1l-0.4-1.3c0,0,0-0.1-0.1-0.1h-3.2
		c0,0,0,0-0.1,0.1l-0.4,1.3c0,0.1-0.1,0.1-0.2,0.1h-1.7c-0.1,0-0.1,0-0.1-0.1c0,0,0-0.1,0-0.1l2.8-8.8c0-0.1,0.1-0.1,0.2-0.1h2
		c0.1,0,0.1,0,0.2,0.1l2.8,8.8c0,0,0,0,0,0.1c0,0.1,0,0.1-0.1,0.1H62.5z M59,109.2C59,109.2,59,109.3,59,109.2l2.3,0.1
		c0.1,0,0.1,0,0.1-0.1l-1.2-3.9c0,0,0-0.1,0-0.1c0,0,0,0,0,0.1L59,109.2z M65.6,112.1c0,0-0.1,0-0.1-0.1c0,0-0.1-0.1-0.1-0.1v-8.8
		c0,0,0-0.1,0.1-0.1c0,0,0.1-0.1,0.1-0.1h1.5c0,0,0.1,0,0.1,0.1c0,0,0,0.1,0,0.1v7.3c0,0,0,0.1,0.1,0.1h4.3c0,0,0.1,0,0.1,0
		c0,0,0,0.1,0,0.1v1.3c0,0,0,0.1,0,0.1c0,0-0.1,0.1-0.1,0.1C71.6,112.1,65.6,112.1,65.6,112.1z M73,112.1c0,0-0.1,0-0.1-0.1
		c0,0,0-0.1,0-0.1v-8.8c0,0,0-0.1,0-0.1c0,0,0.1-0.1,0.1-0.1h1.5c0,0,0.1,0,0.1,0.1c0,0,0.1,0.1,0.1,0.1v7.3c0,0,0,0.1,0.1,0.1H79
		c0,0,0.1,0,0.1,0c0,0,0,0.1,0,0.1v1.3c0,0,0,0.1,0,0.1c0,0-0.1,0.1-0.1,0.1H73z M53.5,122.7C53.5,122.8,53.5,122.8,53.5,122.7
		C53.5,122.8,53.5,122.8,53.5,122.7l3.6,0.1c0,0,0.1,0,0.1,0c0,0,0,0.1,0,0.1v1.3c0,0,0,0.1,0,0.1c0,0-0.1,0.1-0.1,0.1h-5.9
		c0,0-0.1,0-0.1-0.1c0,0,0-0.1,0-0.1V123c0-0.1,0-0.1,0.1-0.2c0.4-0.4,0.9-0.9,1.3-1.4c0.4-0.5,0.7-0.8,0.8-0.9
		c0.2-0.3,0.5-0.6,0.7-0.8c0.8-0.9,1.2-1.5,1.2-2c0-0.3-0.1-0.6-0.3-0.8c-0.2-0.2-0.5-0.3-0.8-0.3s-0.6,0.1-0.8,0.3
		c-0.2,0.2-0.3,0.5-0.3,0.8v0.3c0,0,0,0.1-0.1,0.1c0,0-0.1,0-0.1,0h-1.5c0,0-0.1,0-0.1,0c0,0-0.1-0.1-0.1-0.1v-0.6
		c0-0.5,0.2-0.9,0.4-1.3c0.3-0.4,0.6-0.6,1.1-0.8c0.5-0.2,1-0.3,1.5-0.3c0.6,0,1.2,0.1,1.6,0.3c0.5,0.2,0.8,0.5,1.1,0.9
		c0.2,0.4,0.4,0.8,0.4,1.3c0,0.4-0.1,0.7-0.3,1.1c-0.2,0.4-0.5,0.8-0.8,1.2c-0.3,0.3-0.6,0.7-0.9,1c-0.3,0.3-0.8,0.8-1.4,1.4
		C53.7,122.6,53.5,122.7,53.5,122.7z M61.5,124.5c-1,0-1.7-0.3-2.3-0.8c-0.6-0.5-0.8-1.3-0.8-2.2v-3.4c0-0.9,0.3-1.6,0.8-2.2
		c0.6-0.5,1.3-0.8,2.3-0.8c1,0,1.7,0.3,2.3,0.8c0.6,0.5,0.8,1.2,0.8,2.2v3.4c0,0.9-0.3,1.6-0.8,2.2
		C63.2,124.3,62.5,124.5,61.5,124.5z M61.5,123c0.4,0,0.7-0.1,0.9-0.4c0.2-0.2,0.3-0.6,0.3-1v-3.6c0-0.4-0.1-0.7-0.3-1
		c-0.2-0.2-0.5-0.4-0.9-0.4c-0.4,0-0.7,0.1-0.9,0.4c-0.2,0.2-0.4,0.6-0.4,1v3.6c0,0.4,0.1,0.7,0.4,1C60.8,122.8,61.1,123,61.5,123z
		 M68.3,122.7C68.2,122.8,68.2,122.8,68.3,122.7C68.3,122.8,68.3,122.8,68.3,122.7l3.6,0.1c0,0,0.1,0,0.1,0c0,0,0,0.1,0,0.1v1.3
		c0,0,0,0.1,0,0.1c0,0-0.1,0.1-0.1,0.1H66c0,0-0.1,0-0.1-0.1c0,0-0.1-0.1-0.1-0.1V123c0-0.1,0-0.1,0.1-0.2c0.4-0.4,0.9-0.9,1.3-1.4
		c0.4-0.5,0.7-0.8,0.8-0.9c0.2-0.3,0.5-0.6,0.7-0.8c0.8-0.9,1.2-1.5,1.2-2c0-0.3-0.1-0.6-0.3-0.8c-0.2-0.2-0.5-0.3-0.8-0.3
		s-0.6,0.1-0.8,0.3c-0.2,0.2-0.3,0.5-0.3,0.8v0.3c0,0,0,0.1,0,0.1c0,0-0.1,0-0.1,0h-1.5c0,0-0.1,0-0.1,0c0,0-0.1-0.1-0.1-0.1v-0.6
		c0-0.5,0.2-0.9,0.4-1.3c0.3-0.4,0.6-0.6,1.1-0.8c0.4-0.2,0.9-0.3,1.5-0.3c0.6,0,1.2,0.1,1.6,0.3c0.5,0.2,0.8,0.5,1.1,0.9
		c0.2,0.4,0.4,0.8,0.4,1.3c0,0.4-0.1,0.7-0.3,1.1c-0.2,0.4-0.5,0.8-0.8,1.2c-0.3,0.3-0.6,0.7-0.9,1c-0.3,0.3-0.8,0.8-1.4,1.4
		C68.5,122.6,68.3,122.7,68.3,122.7z M78.6,120c0.2,0.4,0.3,0.9,0.3,1.4c0,0.5-0.1,0.9-0.2,1.3c-0.2,0.6-0.6,1-1,1.3
		c-0.5,0.3-1.1,0.5-1.7,0.5c-0.7,0-1.2-0.2-1.7-0.5c-0.5-0.3-0.9-0.8-1.1-1.3c-0.1-0.3-0.2-0.7-0.2-1.1c0-0.1,0.1-0.2,0.2-0.2h1.5
		c0.1,0,0.2,0.1,0.2,0.2c0,0.3,0.1,0.5,0.1,0.6c0.1,0.2,0.2,0.4,0.4,0.5c0.2,0.1,0.4,0.2,0.6,0.2c0.5,0,0.8-0.2,1-0.6
		c0.1-0.3,0.2-0.6,0.2-0.9c0-0.4-0.1-0.7-0.2-1c-0.2-0.4-0.5-0.6-1-0.6c-0.1,0-0.2,0-0.3,0.1c-0.1,0.1-0.2,0.1-0.4,0.2
		c0,0-0.1,0-0.1,0c-0.1,0-0.1,0-0.1-0.1l-0.8-1.1c0,0,0-0.1,0-0.1c0-0.1,0-0.1,0.1-0.1l2.1-1.8c0,0,0,0,0-0.1c0,0,0,0-0.1,0h-3.1
		c0,0-0.1,0-0.1-0.1c0,0-0.1-0.1-0.1-0.1v-1.3c0,0,0-0.1,0.1-0.1c0,0,0.1-0.1,0.1-0.1h5.4c0,0,0.1,0,0.1,0.1c0,0,0,0.1,0,0.1v1.4
		c0,0.1,0,0.1-0.1,0.2l-1.7,1.6c0,0,0,0,0,0.1c0,0,0,0,0.1,0C77.7,118.8,78.3,119.3,78.6,120z"/>
</g>
<g id="Layer_2">
</g>
</svg>
