<svg width="20" height="20" fill="none" xmlns="http://www.w3.org/2000/svg"><g clip-path="url(#clip0_4235_154402)"><path d="M14.188 3a2.71 2.71 0 011.987.825c.55.55.825 1.213.825 1.987v9.375a2.71 2.71 0 01-.825 1.988 2.71 2.71 0 01-1.988.825h-1.835v-5.81h1.943l.293-2.266h-2.236V8.479c0-.365.076-.639.23-.82.152-.183.45-.274.893-.274l1.191-.01V5.354c-.41-.06-.99-.088-1.738-.088-.886 0-1.594.26-2.124.78-.53.522-.796 1.257-.796 2.208v1.67H8.055v2.266h1.953V18H4.813a2.709 2.709 0 01-1.988-.825A2.709 2.709 0 012 15.187V5.813c0-.775.275-1.438.825-1.988A2.709 2.709 0 014.812 3h9.375z" fill="#151417"/></g><defs><clipPath id="clip0_4235_154402"><path fill="#fff" transform="translate(2 3)" d="M0 0h15v15H0z"/></clipPath></defs></svg>