<svg width="20" height="20" fill="none" xmlns="http://www.w3.org/2000/svg"><mask id="mask0_4235_154409" style="mask-type:alpha" maskUnits="userSpaceOnUse" x="11" y="1" width="1" height="1"><path d="M11 1h.164v.08H11V1z" fill="#fff"/></mask><g mask="url(#mask0_4235_154409)"><path fill-rule="evenodd" clip-rule="evenodd" d="M11.163 1.06l-.124.002c-.014 0-.03.01-.04-.052h.164a.336.336 0 000 .05z" fill="#151417"/></g><mask id="mask1_4235_154409" style="mask-type:alpha" maskUnits="userSpaceOnUse" x="2" y="9" width="1" height="1"><path d="M2.533 9.144h.082v.169h-.082v-.17z" fill="#fff"/></mask><g mask="url(#mask1_4235_154409)"><path fill-rule="evenodd" clip-rule="evenodd" d="M2.54 9.144l.06.002-.001.121c0 .017.012.035-.059.046v-.17z" fill="#151417"/></g><mask id="mask2_4235_154409" style="mask-type:alpha" maskUnits="userSpaceOnUse" x="11" y="18" width="1" height="1"><path d="M11.41 18.917h.168V19h-.168v-.083z" fill="#fff"/></mask><g mask="url(#mask2_4235_154409)"><path fill-rule="evenodd" clip-rule="evenodd" d="M11.41 18.99c.02-.09.047-.045.07-.05.032-.007.063 0 .094 0a.085.085 0 01.003.035c-.001.01-.003.015-.004.015h-.163z" fill="#151417"/></g><mask id="mask3_4235_154409" style="mask-type:alpha" maskUnits="userSpaceOnUse" x="10" y="1" width="2" height="1"><path d="M10.89 1.016h.152v.082h-.152v-.082z" fill="#fff"/></mask><g mask="url(#mask3_4235_154409)"><path fill-rule="evenodd" clip-rule="evenodd" d="M10.891 1.069c0-.015 0-.03.002-.044h.15c-.012.087-.032.048-.049.05-.034.004-.069-.004-.103-.006z" fill="#151417"/></g><mask id="mask4_4235_154409" style="mask-type:alpha" maskUnits="userSpaceOnUse" x="2" y="10" width="1" height="1"><path d="M2.533 10.233h.082v.156h-.082v-.156z" fill="#fff"/></mask><g mask="url(#mask4_4235_154409)"><path fill-rule="evenodd" clip-rule="evenodd" d="M2.593 10.389h-.051v-.156c.062.004.058.018.058.03-.001.042-.005.084-.007.126z" fill="#151417"/></g><mask id="mask5_4235_154409" style="mask-type:alpha" maskUnits="userSpaceOnUse" x="10" y="18" width="2" height="1"><path d="M10.887 18.92h.154V19h-.154v-.08z" fill="#fff"/></mask><g mask="url(#mask5_4235_154409)"><path fill-rule="evenodd" clip-rule="evenodd" d="M10.89 18.945c.037-.003.076-.007.114-.008.014 0 .029-.006.038.051h-.15a.062.062 0 01-.005-.026c0-.012.001-.017.002-.017z" fill="#151417"/></g><mask id="mask6_4235_154409" style="mask-type:alpha" maskUnits="userSpaceOnUse" x="10" y="18" width="1" height="1"><path d="M10.87 18.92h.126v.078h-.126v-.078z" fill="#fff"/></mask><g mask="url(#mask6_4235_154409)"><path fill-rule="evenodd" clip-rule="evenodd" d="M10.993 18.943c0 .015.001.03.003.044h-.126v-.048l.123.004z" fill="#151417"/></g><mask id="mask7_4235_154409" style="mask-type:alpha" maskUnits="userSpaceOnUse" x="11" y="18" width="1" height="1"><path d="M11.39 18.92h.115v.078h-.114v-.079z" fill="#fff"/></mask><g mask="url(#mask7_4235_154409)"><path fill-rule="evenodd" clip-rule="evenodd" d="M11.391 18.987a.308.308 0 01.001-.05l.113.006v.044h-.114z" fill="#151417"/></g><mask id="mask8_4235_154409" style="mask-type:alpha" maskUnits="userSpaceOnUse" x="2" y="1" width="14" height="18"><path d="M2 1h13.874v17.846H2V1z" fill="#fff"/></mask><g mask="url(#mask8_4235_154409)"><path fill-rule="evenodd" clip-rule="evenodd" d="M11.154 1.01c.433.02.862.073 1.293.16l-.06.131-.292.624-.426.91-.308.66c-.14.302-.282.603-.423.905l-.182.393c-.013.029-.03.037-.059.037a4.864 4.864 0 00-1.95.424 4.933 4.933 0 00-1.272.82A5.13 5.13 0 005.76 9.629a5.184 5.184 0 00.468 2.47c.112.236.24.463.383.681a5.066 5.066 0 001.99 1.75 4.83 4.83 0 001.7.472c.192.018.383.023.575.018a4.913 4.913 0 003.074-1.207l.011-.01c.017-.016.027-.016.04.007.039.072.08.143.12.214l.709 1.254.512.908.518.916c.017.03.024.035-.012.061a8.657 8.657 0 01-3.35 1.507 8.324 8.324 0 01-1.15.16c-.036.003-.071.003-.106.008-.029.007-.058.002-.087.003-.042.003-.085-.005-.127.006h-.592c-.038-.012-.077-.002-.116-.006h-.09a5.636 5.636 0 01-.803-.075 8.444 8.444 0 01-2.846-.972 8.791 8.791 0 01-2.208-1.734 8.886 8.886 0 01-1.56-2.347 9.218 9.218 0 01-.788-3.01c-.012-.12-.01-.24-.02-.36-.003-.037.005-.075-.005-.112v-.605c.011-.04.002-.08.005-.12.012-.073.004-.146.01-.218a8.89 8.89 0 01.802-3.156A8.981 8.981 0 014.642 3.51a8.839 8.839 0 011.864-1.412 8.587 8.587 0 013.422-1.074c.132-.011.264-.016.396-.019.037-.003.075.006.111-.005h.592c.041.014.085-.003.126.01z" fill="#151417"/></g><mask id="mask9_4235_154409" style="mask-type:alpha" maskUnits="userSpaceOnUse" x="10" y="8" width="9" height="9"><path d="M10.367 8.644H19v7.654h-8.633V8.644z" fill="#fff"/></mask><g mask="url(#mask9_4235_154409)"><path fill-rule="evenodd" clip-rule="evenodd" d="M19 12.49c-.04.05-.065.108-.096.162-.265.48-.538.957-.808 1.435l-.63 1.118-.605 1.07c-.005.008-.007.018-.018.023-.017-.011-.023-.03-.033-.047l-.644-1.144-.94-1.665-.332-.586a17.541 17.541 0 01-.188-.34c-.018-.032-.038-.044-.075-.044-1.402.002-2.803.001-4.204.001h-.058c-.007-.016.003-.026.009-.037l1.03-1.817.777-1.379.32-.565c.012-.023.027-.034.053-.03h.02l4.213-.001c.041 0 .062.014.082.05.197.353.396.705.595 1.057l.743 1.314c.192.34.383.68.576 1.019.07.122.14.244.208.366l.005.001v.04z" fill="#151417"/></g><mask id="mask10_4235_154409" style="mask-type:alpha" maskUnits="userSpaceOnUse" x="11" y="1" width="1" height="1"><path d="M11.028 1.008h.128v.062h-.128v-.062z" fill="#fff"/></mask><g mask="url(#mask10_4235_154409)"><path fill-rule="evenodd" clip-rule="evenodd" d="M11.156 1.053l-.097.002c-.01 0-.023.007-.03-.04h.127a.25.25 0 000 .038z" fill="#151417"/></g><mask id="mask11_4235_154409" style="mask-type:alpha" maskUnits="userSpaceOnUse" x="2" y="9" width="1" height="1"><path d="M2.007 9.497h.064v.13h-.064v-.13z" fill="#fff"/></mask><g mask="url(#mask11_4235_154409)"><path fill-rule="evenodd" clip-rule="evenodd" d="M2.015 9.497l.046.002v.093c0 .013.009.027-.046.035v-.13z" fill="#151417"/></g><mask id="mask12_4235_154409" style="mask-type:alpha" maskUnits="userSpaceOnUse" x="11" y="18" width="1" height="1"><path d="M11.028 18.837h.131v.064h-.13v-.064z" fill="#fff"/></mask><g mask="url(#mask12_4235_154409)"><path fill-rule="evenodd" clip-rule="evenodd" d="M11.028 18.893c.016-.069.037-.035.055-.038.024-.006.049 0 .073 0a.06.06 0 01.002.026c0 .008-.002.012-.003.012h-.127z" fill="#151417"/></g><mask id="mask13_4235_154409" style="mask-type:alpha" maskUnits="userSpaceOnUse" x="10" y="1" width="1" height="1"><path d="M10.32 1.007h.118v.064h-.118v-.064z" fill="#fff"/></mask><g mask="url(#mask13_4235_154409)"><path fill-rule="evenodd" clip-rule="evenodd" d="M10.32 1.049l.001-.034h.118c-.01.067-.025.037-.038.038-.027.003-.054-.002-.08-.004z" fill="#151417"/></g><mask id="mask14_4235_154409" style="mask-type:alpha" maskUnits="userSpaceOnUse" x="2" y="10" width="1" height="1"><path d="M2.006 10.23h.063v.12h-.063v-.12z" fill="#fff"/></mask><g mask="url(#mask14_4235_154409)"><path fill-rule="evenodd" clip-rule="evenodd" d="M2.053 10.35h-.04v-.12c.049.004.045.014.045.024 0 .032-.003.064-.005.096z" fill="#151417"/></g><mask id="mask15_4235_154409" style="mask-type:alpha" maskUnits="userSpaceOnUse" x="10" y="18" width="1" height="1"><path d="M10.316 18.839h.12v.061h-.12v-.061z" fill="#fff"/></mask><g mask="url(#mask15_4235_154409)"><path fill-rule="evenodd" clip-rule="evenodd" d="M10.317 18.858l.09-.006c.01 0 .022-.005.03.04h-.118a.047.047 0 01-.003-.021l.001-.013z" fill="#151417"/></g><mask id="mask16_4235_154409" style="mask-type:alpha" maskUnits="userSpaceOnUse" x="10" y="18" width="1" height="1"><path d="M10.224 18.84h.098v.06h-.098v-.06z" fill="#fff"/></mask><g mask="url(#mask16_4235_154409)"><path fill-rule="evenodd" clip-rule="evenodd" d="M10.32 18.857l.002.034h-.098v-.037l.096.003z" fill="#151417"/></g><mask id="mask17_4235_154409" style="mask-type:alpha" maskUnits="userSpaceOnUse" x="11" y="18" width="1" height="1"><path d="M11.153 18.839h.09v.06h-.09v-.06z" fill="#fff"/></mask><g mask="url(#mask17_4235_154409)"><path fill-rule="evenodd" clip-rule="evenodd" d="M11.153 18.89v-.038l.089.004v.034h-.089z" fill="#151417"/></g><path fill-rule="evenodd" clip-rule="evenodd" d="M14.585 6.272h2.551c.067 0 .057-.006.057.057v1.016c.005.028-.009.035-.033.033h-3.859c-.073 0-.061.008-.062-.062 0-.083-.003-.165 0-.248.007-.195.021-.39.053-.584a3.27 3.27 0 01.157-.6 2.33 2.33 0 01.393-.681c.226-.27.495-.486.789-.672.199-.126.406-.235.617-.337a3.03 3.03 0 00.345-.19 1.28 1.28 0 00.295-.254.648.648 0 00.145-.36.547.547 0 00-.298-.546.952.952 0 00-.37-.1 1.3 1.3 0 00-.538.07 1.21 1.21 0 00-.424.26c-.162.15-.284.331-.383.53-.005.011-.009.024-.02.033-.015.002-.021-.012-.03-.02l-.706-.723c-.034-.034-.03-.027-.01-.066.092-.189.21-.358.357-.508.232-.237.502-.416.808-.537.172-.069.35-.111.534-.13.116-.013.231-.021.347-.017.343.013.675.076.986.232.241.12.457.277.627.494.151.193.242.414.28.658.025.149.03.299.019.448a1.602 1.602 0 01-.392.962c-.13.15-.28.277-.442.39a4.627 4.627 0 01-.496.297c-.22.115-.443.223-.657.348a1.675 1.675 0 00-.398.304.945.945 0 00-.242.503z" fill="#151417"/></svg>