<svg width="94" height="20" viewBox="0 0 94 20" fill="none" xmlns="http://www.w3.org/2000/svg">
<path d="M57.24 8.344C57.208 8.216 57.192 8.024 57.192 7.848C57.192 6.568 57.96 5.592 59.368 5.592C60.744 5.592 61.48 6.536 61.48 7.56C61.48 8.472 60.984 9.208 59.976 9.848L58.12 11.048C56.456 12.12 55.816 13.4 55.784 15H62.92V13.784H57.416C57.544 13.032 58.12 12.488 58.744 12.088L60.872 10.728C62.056 9.976 62.824 8.904 62.824 7.544C62.824 5.832 61.544 4.408 59.4 4.408C57.176 4.408 55.88 5.944 55.88 7.72C55.88 7.864 55.896 8.04 55.928 8.184L57.24 8.344ZM71.2856 4.632H63.7816V5.848H69.7816C69.1896 6.392 65.8936 9.304 65.3976 15H66.7736C67.2856 9.768 69.9256 7.112 71.2856 5.912V4.632ZM79.1025 4.632H71.5985V5.848H77.5985C77.0065 6.392 73.7105 9.304 73.2145 15H74.5905C75.1025 9.768 77.7425 7.112 79.1025 5.912V4.632ZM83.8154 14.04C83.0474 14.04 82.4874 13.752 82.0714 13.304C81.3834 12.584 81.0954 11.384 81.0954 9.816C81.0954 8.248 81.3834 7.048 82.0714 6.328C82.4874 5.88 83.0474 5.592 83.8154 5.592C84.5834 5.592 85.1434 5.88 85.5594 6.328C86.2474 7.048 86.5354 8.248 86.5354 9.816C86.5354 11.384 86.2474 12.584 85.5594 13.304C85.1434 13.752 84.5834 14.04 83.8154 14.04ZM83.8154 15.224C85.2234 15.224 86.2314 14.6 86.8874 13.64C87.6074 12.6 87.8474 11.224 87.8474 9.816C87.8474 8.408 87.6074 7.032 86.8874 5.992C86.2314 5.032 85.2234 4.408 83.8154 4.408C82.4074 4.408 81.3994 5.032 80.7434 5.992C80.0234 7.032 79.7834 8.408 79.7834 9.816C79.7834 11.224 80.0234 12.6 80.7434 13.64C81.3994 14.6 82.4074 15.224 83.8154 15.224ZM92.5083 15V4.632H91.3243C91.0683 5.752 90.0923 6.6 88.6523 6.664V7.432H91.1963V15H92.5083Z" fill="white"/>
<path fill-rule="evenodd" clip-rule="evenodd" d="M29.3087 3.96385C30.9966 2.7126 33.5959 2.7983 35.4526 3.60389L36.2291 4.03237C36.2798 3.90859 36.2756 3.75379 36.2715 3.6053C36.2688 3.50705 36.2662 3.41156 36.2797 3.32965C37.0392 3.29541 37.9675 3.29542 38.7271 3.31251C38.7322 3.7371 38.7402 4.14489 38.7482 4.54545C38.7668 5.48698 38.7846 6.38858 38.7609 7.37458C38.1483 7.40052 37.5067 7.39705 36.9092 7.39381C36.7165 7.39276 36.5283 7.39174 36.3472 7.39174C35.6552 6.27767 34.4399 5.86634 33.2584 5.69495C33.1658 5.6921 33.0682 5.68499 32.9682 5.67771C32.4663 5.64117 31.9054 5.60035 31.638 6.07196C31.6043 6.26051 31.6887 6.41475 31.8236 6.53476L32.1275 6.68901L36.2122 7.90591C37.5794 8.26586 38.9297 9.58564 39.1153 11.0425C39.3011 12.5335 38.6259 13.9219 37.36 14.6418C35.6214 15.5672 33.3596 15.3958 31.6043 14.6418C31.5089 14.5905 31.4135 14.5373 31.3181 14.4841C31.1265 14.3773 30.935 14.2705 30.7434 14.179L30.7096 15.0016L28.1778 15.0187C28.1272 13.6476 28.1441 12.0536 28.1778 10.6654L30.4565 10.6482C30.524 10.7339 30.5789 10.8282 30.6338 10.9225C30.6886 11.0168 30.7435 11.111 30.8109 11.1966C31.9587 12.4307 33.6803 12.7735 35.2669 12.3279L35.2725 12.3247C35.3898 12.2566 35.537 12.1712 35.537 12.0193C35.5708 11.8308 35.3682 11.6765 35.2163 11.6081C34.5082 11.3604 33.7892 11.1425 33.071 10.9249C32.2485 10.6756 31.4273 10.4268 30.6252 10.134C29.5281 9.70548 28.3804 8.79711 28.161 7.56312C27.874 6.26051 28.2116 4.78649 29.3087 3.96385ZM41.9679 3.91238C44.2297 2.60984 47.5717 2.71261 49.7659 4.1524C50.5255 4.68366 51.1501 5.42069 51.4538 6.24335C52.2134 8.36862 52.129 11.1966 50.8799 13.082C50.3397 13.8019 49.614 14.3331 48.8544 14.6589L48.7827 14.691C48.5295 14.8302 48.1603 14.9267 48.0443 14.9503C45.5968 15.6529 42.8456 15.2758 40.9551 13.5619C39.3348 11.9336 39.2167 9.34561 39.6724 7.16887C39.9256 5.84918 40.7357 4.56373 41.9679 3.91238ZM20.0422 3.1411L21.0887 3.12402L27.452 3.1411C27.5026 4.03237 27.4858 5.07791 27.4689 6.05481L25.7979 6.07196L25.7642 6.12344L25.7473 12.1393C26.0627 12.1794 26.4068 12.1785 26.7495 12.1777C26.9937 12.1771 27.2372 12.1765 27.4689 12.1907V15.0187H20.0253C19.9916 14.076 19.9916 13.1506 20.0253 12.1907L21.6963 12.1565L21.7132 11.9165V6.08912C21.3407 6.05475 20.9756 6.05101 20.603 6.04719C20.4185 6.0453 20.2322 6.04339 20.0422 6.03774C20.0253 5.11214 20.0253 4.04953 20.0422 3.1411ZM47.8117 7.66873C47.7798 7.27659 47.7471 6.87367 47.53 6.54937C47.0937 5.98273 46.403 5.87647 45.6943 5.87647C45.0217 5.92964 44.2764 6.10669 44.0038 6.79723C43.6833 7.83263 43.7386 9.02058 43.7918 10.1629C43.7959 10.2513 43.8 10.3393 43.8039 10.427L43.8057 10.4424C43.8779 11.0575 43.9539 11.7052 44.5128 12.0915C45.1852 12.4633 46.1668 12.5518 46.8938 12.2331C47.3482 12.0737 47.639 11.631 47.7298 11.2062C47.8601 10.4699 47.8503 9.6427 47.841 8.86153C47.8374 8.55298 47.8338 8.25162 47.839 7.96587C47.8279 7.86852 47.8198 7.76898 47.8117 7.66873Z" fill="white"/>
<circle cx="8" cy="9" r="8" fill="white"/>
<path d="M6.28286 11.7843L4.17772 9.59878C3.94076 9.35278 3.94076 8.95593 4.17772 8.70993C4.41267 8.46602 4.79506 8.46451 5.03182 8.70657C5.03271 8.70748 5.0336 8.7084 5.03449 8.70932L6.7857 10.5223L10.9648 6.18368C11.1995 5.94009 11.5814 5.93859 11.8178 6.18032C11.8194 6.18195 11.821 6.18359 11.8225 6.18524C12.0597 6.43323 12.0591 6.8317 11.821 7.07883L7.28854 11.7843C7.01295 12.0704 6.56441 12.0721 6.2867 11.7882C6.28541 11.7869 6.28414 11.7856 6.28286 11.7843Z" fill="#600DFF"/>
</svg>
