<?xml version="1.0" encoding="utf-8"?>
<!-- Generator: Adobe Illustrator 27.7.0, SVG Export Plug-In . SVG Version: 6.00 Build 0)  -->
<svg version="1.1" xmlns="http://www.w3.org/2000/svg" xmlns:xlink="http://www.w3.org/1999/xlink" x="0px" y="0px"
	 viewBox="0 0 130 150" style="enable-background:new 0 0 130 150;" xml:space="preserve">
<style type="text/css">
	.st0{fill:#FFFFFF;}
	.st1{fill:#F2F3F2;}
	.st2{fill:#DCDEDC;}
	.st3{fill:#FF492C;}
	.st4{fill:#FFD200;}
	.st5{fill:#252530;}
	.st6{fill:#242530;}
</style>
<g id="Layer_1">
	<g>
		<path class="st0" d="M14.4,112.7L66,138.9l49.6-26.2V10.1H14.4V112.7z"/>
		<path class="st1" d="M116.6,10.5l-103.2,104L66.9,141l49.7-25.4L116.6,10.5z"/>
		<path class="st2" d="M11,44.3v70.6l1.8,0.9L64.4,142l1.6,0.8l1.6-0.8l49.7-26.2l1.8-0.9V6.7H11V44.3z M14.4,112.9V10.1h101.3
			v102.8L66,139.1L14.4,112.9z"/>
		<path class="st3" d="M65.1,11.8c0.5,0,1,0,1.6,0.1l-1.6,3c-2.3-0.1-4.4,1.7-4.6,4s1.7,4.4,4,4.6h0.5c1,0,2.1-0.4,2.9-1l1.7,2.9
			c-1.3,0.9-2.9,1.4-4.6,1.4c-4.2,0.1-7.7-3-7.8-7.2c-0.1-4.2,3-7.7,7.2-7.8C64.4,11.8,65.1,11.8,65.1,11.8z M70.4,18.2l2,3.3
			l-2,3.1l-1.8-3.1h-3.8l2-3.3H70.4z M67.3,17c0-0.5,0.1-1,0.4-1.4c0.3-0.4,0.8-0.8,1.2-1l0.3-0.1c0.5-0.3,0.7-0.4,0.7-0.7
			s-0.4-0.5-0.7-0.5c-0.5,0-0.9,0.3-1.2,0.8l-0.7-0.7c0.1-0.3,0.4-0.5,0.7-0.8c0.4-0.3,0.8-0.3,1.2-0.3c0.4,0,0.9,0.1,1.2,0.4
			s0.5,0.7,0.5,1c0,0.7-0.4,1.2-1.2,1.4l-0.4,0.3c-0.4,0.3-0.7,0.4-0.8,0.8h2.3v0.9C70.8,17.1,67.3,17,67.3,17z M65.1,33.3l12.4-7
			V6.7H52.5v19.4C52.5,26.1,65.1,33.3,65.1,33.3z"/>
		<path class="st4" d="M121.6,79.5H8.6l-4.2,9.1l4.2,9.1h113l4-9.1L121.6,79.5z"/>
		<path class="st5" d="M46.9,59.9c0.1,0,0.1,0,0.2,0.1c0,0.1,0.1,0.1,0.1,0.2v1.9c0,0.1,0,0.1-0.1,0.2c-0.1,0-0.1,0.1-0.2,0.1h-3.5
			c-0.1,0-0.1,0-0.1,0.1v11c0,0.1,0,0.1-0.1,0.2c-0.1,0-0.1,0.1-0.2,0.1h-2.3c-0.1,0-0.1,0-0.2-0.1c-0.1,0-0.1-0.1-0.1-0.2v-11
			c0-0.1,0-0.1-0.1-0.1h-3.4c-0.1,0-0.1,0-0.2-0.1c0-0.1-0.1-0.1-0.1-0.2v-1.9c0-0.1,0-0.1,0.1-0.2c0.1,0,0.1-0.1,0.2-0.1H46.9z
			 M51.5,73.8c-1.1,0-2-0.3-2.8-0.9s-1.3-1.4-1.6-2.3c-0.2-0.6-0.3-1.3-0.3-2c0-0.8,0.1-1.5,0.3-2.1c0.3-1,0.8-1.7,1.6-2.3
			c0.8-0.5,1.7-0.8,2.8-0.8c1.1,0,2,0.3,2.8,0.8c0.8,0.5,1.3,1.3,1.6,2.3c0.2,0.7,0.3,1.3,0.3,2c0,0.7-0.1,1.4-0.3,2
			c-0.3,1-0.8,1.8-1.6,2.4C53.6,73.5,52.6,73.8,51.5,73.8z M51.5,71.4c0.4,0,0.8-0.1,1.1-0.4c0.3-0.3,0.5-0.6,0.7-1.1
			c0.1-0.4,0.2-0.9,0.2-1.4c0-0.5-0.1-1-0.2-1.4c-0.1-0.4-0.4-0.8-0.7-1c-0.3-0.2-0.7-0.4-1.1-0.4c-0.4,0-0.8,0.1-1.1,0.4
			c-0.3,0.3-0.5,0.6-0.6,1c-0.1,0.3-0.2,0.8-0.2,1.4c0,0.6,0,1,0.1,1.4c0.1,0.5,0.3,0.8,0.7,1.1C50.7,71.3,51.1,71.4,51.5,71.4z
			 M67.1,73.8c-1,0-1.9-0.2-2.6-0.6c-0.8-0.4-1.3-0.9-1.8-1.7S62,70,62,69.1v-8.9c0-0.1,0-0.1,0.1-0.2c0.1,0,0.1-0.1,0.2-0.1h2.3
			c0.1,0,0.1,0,0.2,0.1c0.1,0.1,0.1,0.1,0.1,0.2v9c0,0.7,0.2,1.2,0.6,1.7c0.4,0.4,1,0.6,1.7,0.6c0.7,0,1.3-0.2,1.7-0.6
			c0.4-0.4,0.6-1,0.6-1.7v-9c0-0.1,0-0.1,0.1-0.2c0,0,0.1-0.1,0.2-0.1h2.3c0.1,0,0.1,0,0.2,0.1c0,0.1,0.1,0.1,0.1,0.2v8.9
			c0,0.9-0.2,1.7-0.6,2.5c-0.4,0.7-1,1.3-1.8,1.7C69,73.6,68.1,73.8,67.1,73.8z M78.2,73.8c-0.9,0-1.6-0.1-2.3-0.4s-1.2-0.6-1.5-1
			c-0.4-0.4-0.5-0.9-0.5-1.5v-0.2c0-0.1,0-0.1,0.1-0.2c0,0,0.1-0.1,0.2-0.1h2.2c0.1,0,0.1,0,0.2,0.1c0.1,0.1,0.1,0.1,0.1,0.2v0
			c0,0.3,0.2,0.5,0.5,0.7c0.3,0.2,0.7,0.3,1.2,0.3c0.5,0,0.8-0.1,1.1-0.3c0.3-0.2,0.4-0.4,0.4-0.7c0-0.2-0.1-0.4-0.3-0.5
			c-0.2-0.1-0.6-0.2-1.2-0.4c-0.6-0.2-1.1-0.3-1.4-0.5c-0.8-0.3-1.5-0.6-2-1.1s-0.7-1-0.7-1.8c0-1,0.4-1.7,1.1-2.3
			c0.7-0.6,1.7-0.8,3-0.8c0.8,0,1.6,0.1,2.2,0.4c0.6,0.3,1.1,0.6,1.5,1.1c0.3,0.5,0.5,1,0.5,1.6c0,0.1,0,0.1-0.1,0.2
			c0,0-0.1,0.1-0.2,0.1H80c-0.1,0-0.1,0-0.2-0.1c0,0-0.1-0.1-0.1-0.2c0-0.3-0.1-0.5-0.4-0.7c-0.3-0.2-0.7-0.3-1.2-0.3
			c-0.4,0-0.8,0.1-1.1,0.2c-0.3,0.2-0.4,0.4-0.4,0.6c0,0.3,0.1,0.5,0.4,0.6c0.3,0.1,0.7,0.3,1.3,0.4l0.5,0.1c0.2,0,0.4,0.1,0.6,0.2
			c0.9,0.3,1.7,0.6,2.2,1.1c0.5,0.4,0.8,1.1,0.8,1.9c0,1-0.4,1.7-1.1,2.3C80.6,73.5,79.5,73.8,78.2,73.8z M93,67.6
			c0.1,0.5,0.1,1,0.1,1.7c0,0.2-0.1,0.2-0.3,0.2h-6c-0.1,0-0.1,0-0.1,0.1c0,0.3,0.1,0.5,0.2,0.8c0.3,0.7,1,1.1,2.1,1.1
			c0.8,0,1.5-0.3,2-1c0.1-0.1,0.1-0.1,0.2-0.1c0,0,0.1,0,0.1,0.1l1.4,1.4c0.1,0.1,0.1,0.1,0.1,0.2c0,0,0,0.1-0.1,0.2
			c-0.4,0.5-1,1-1.7,1.2c-0.7,0.3-1.4,0.4-2.2,0.4c-1.1,0-2.1-0.3-2.8-0.8c-0.8-0.5-1.3-1.2-1.7-2.1c-0.3-0.7-0.4-1.5-0.4-2.6
			c0-0.7,0.1-1.4,0.3-1.9c0.3-0.9,0.8-1.7,1.6-2.2c0.7-0.5,1.6-0.8,2.7-0.8c1.3,0,2.4,0.4,3.1,1.1C92.3,65.3,92.8,66.3,93,67.6z
			 M88.4,65.8c-0.8,0-1.4,0.4-1.6,1.1c-0.1,0.2-0.1,0.4-0.1,0.6c0,0.1,0,0.1,0.1,0.1h3.4c0.1,0,0.1,0,0.1-0.1
			c-0.1-0.4-0.1-0.6-0.1-0.5c-0.1-0.4-0.3-0.7-0.6-0.9C89.2,65.9,88.8,65.8,88.4,65.8z M42.8,42.5c0,0.1,0,0.1-0.1,0.2
			c0,0-0.1,0.1-0.2,0.1h-6.4c-0.1,0-0.1,0-0.1,0.1v3c0,0.1,0,0.1,0.1,0.1h4.2c0.1,0,0.1,0,0.2,0.1c0,0.1,0.1,0.1,0.1,0.2v1.9
			c0,0.1,0,0.1-0.1,0.2c-0.1,0.1-0.1,0.1-0.2,0.1h-4.2c-0.1,0-0.1,0-0.1,0.1v3.2c0,0.1,0,0.1,0.1,0.1h6.4c0.1,0,0.1,0,0.2,0.1
			c0.1,0,0.1,0.1,0.1,0.2v1.9c0,0.1,0,0.1-0.1,0.2c0,0-0.1,0.1-0.2,0.1h-9.1c-0.1,0-0.1,0-0.2-0.1c-0.1,0-0.1-0.1-0.1-0.2V40.6
			c0-0.1,0-0.1,0.1-0.2c0,0,0.1-0.1,0.2-0.1h9.1c0.1,0,0.1,0,0.2,0.1c0.1,0.1,0.1,0.1,0.1,0.2V42.5z M48.6,43.9
			c0.8,0,1.6,0.1,2.3,0.4c0.7,0.3,1.2,0.7,1.6,1.2c0.4,0.5,0.5,1.1,0.5,1.7v6.6c0,0.1,0,0.1-0.1,0.2s-0.1,0.1-0.2,0.1h-2.3
			c-0.1,0-0.1,0-0.2-0.1s-0.1-0.1-0.1-0.2v-0.6c0,0,0-0.1,0-0.1c0,0-0.1,0-0.1,0c-0.5,0.7-1.4,1.1-2.6,1.1c-1,0-1.8-0.2-2.5-0.7
			c-0.6-0.5-1-1.2-1-2.2c0-1,0.4-1.8,1.1-2.3c0.7-0.6,1.7-0.8,3-0.8h2c0.1,0,0.1,0,0.1-0.1v-0.4c0-0.4-0.1-0.8-0.4-1
			c-0.3-0.2-0.7-0.4-1.2-0.4c-0.4,0-0.7,0.1-1,0.2c-0.3,0.1-0.4,0.4-0.5,0.6c0,0.1-0.1,0.2-0.3,0.2l-2.4-0.3c-0.2,0-0.2-0.1-0.2-0.2
			c0.1-0.5,0.3-1,0.7-1.5c0.4-0.4,0.9-0.8,1.5-1C47.1,44,47.8,43.9,48.6,43.9z M48.2,52.2c0.6,0,1-0.2,1.4-0.5
			c0.4-0.3,0.6-0.7,0.6-1.2v-0.7c0-0.1,0-0.1-0.1-0.1h-1.4c-0.6,0-1.1,0.1-1.4,0.3c-0.3,0.2-0.5,0.5-0.5,0.9c0,0.3,0.1,0.6,0.4,0.8
			C47.5,52.1,47.8,52.2,48.2,52.2z M58.9,54.2c-0.9,0-1.6-0.1-2.3-0.4c-0.7-0.2-1.2-0.6-1.5-1c-0.4-0.4-0.5-0.9-0.5-1.5v-0.2
			c0-0.1,0-0.1,0.1-0.2c0,0,0.1-0.1,0.2-0.1H57c0.1,0,0.1,0,0.2,0.1c0,0.1,0.1,0.1,0.1,0.2v0c0,0.3,0.2,0.5,0.5,0.7
			c0.3,0.2,0.7,0.3,1.2,0.3c0.4,0,0.8-0.1,1.1-0.3c0.3-0.2,0.4-0.4,0.4-0.7c0-0.2-0.1-0.4-0.4-0.5c-0.2-0.1-0.6-0.2-1.2-0.4
			c-0.6-0.2-1.1-0.3-1.4-0.5c-0.8-0.3-1.5-0.6-2-1.1c-0.5-0.4-0.7-1-0.7-1.8c0-1,0.4-1.7,1.1-2.3c0.7-0.6,1.7-0.8,3-0.8
			c0.8,0,1.6,0.1,2.2,0.4c0.6,0.3,1.1,0.6,1.4,1.1c0.3,0.5,0.5,1,0.5,1.6c0,0.1,0,0.1-0.1,0.2c0,0-0.1,0.1-0.2,0.1h-2.1
			c-0.1,0-0.1,0-0.2-0.1c0,0-0.1-0.1-0.1-0.2c0-0.3-0.1-0.5-0.4-0.7c-0.3-0.2-0.7-0.3-1.2-0.3c-0.4,0-0.8,0.1-1.1,0.2
			c-0.3,0.2-0.4,0.4-0.4,0.6c0,0.3,0.1,0.5,0.4,0.6c0.3,0.1,0.7,0.3,1.3,0.4c0.1,0,0.3,0.1,0.5,0.1s0.4,0.1,0.6,0.2
			c0.9,0.3,1.7,0.6,2.2,1.1c0.5,0.4,0.8,1.1,0.8,1.9c0,1-0.4,1.7-1.1,2.3C61.3,53.9,60.2,54.2,58.9,54.2z M66.2,42.9
			c-0.4,0-0.8-0.1-1.1-0.4c-0.3-0.3-0.4-0.7-0.4-1.1c0-0.5,0.1-0.8,0.4-1.1c0.3-0.3,0.7-0.4,1.1-0.4c0.5,0,0.8,0.1,1.1,0.4
			c0.3,0.3,0.4,0.7,0.4,1.1c0,0.4-0.1,0.8-0.4,1.1C67,42.7,66.7,42.9,66.2,42.9z M65.1,54.1c-0.1,0-0.1,0-0.2-0.1
			c0,0-0.1-0.1-0.1-0.2v-9.6c0-0.1,0-0.1,0.1-0.2c0.1,0,0.1-0.1,0.2-0.1h2.3c0.1,0,0.1,0,0.2,0.1s0.1,0.1,0.1,0.2v9.6
			c0,0.1,0,0.1-0.1,0.2s-0.1,0.1-0.2,0.1H65.1z M78.6,48c0.1,0.5,0.1,1,0.1,1.7c0,0.2-0.1,0.2-0.2,0.2h-6.1c-0.1,0-0.1,0-0.1,0.1
			c0,0.3,0.1,0.5,0.2,0.8c0.3,0.7,1,1.1,2.1,1.1c0.8,0,1.5-0.3,2-1c0.1-0.1,0.1-0.1,0.2-0.1c0,0,0.1,0,0.1,0.1l1.4,1.4
			c0.1,0.1,0.1,0.1,0.1,0.2c0,0,0,0.1-0.1,0.2c-0.4,0.5-1,1-1.7,1.2c-0.7,0.3-1.4,0.4-2.2,0.4c-1.1,0-2.1-0.3-2.8-0.8
			c-0.8-0.5-1.3-1.2-1.7-2.1c-0.3-0.7-0.4-1.5-0.4-2.6c0-0.7,0.1-1.4,0.3-1.9c0.3-0.9,0.8-1.7,1.6-2.2c0.8-0.5,1.6-0.8,2.7-0.8
			c1.3,0,2.4,0.4,3.1,1.1C78,45.7,78.5,46.7,78.6,48z M74.1,46.2c-0.8,0-1.4,0.4-1.6,1.1c-0.1,0.2-0.1,0.4-0.1,0.6
			c0,0.1,0,0.1,0.1,0.1h3.4c0.1,0,0.1,0,0.1-0.1c-0.1-0.4-0.1-0.6-0.1-0.5c-0.1-0.4-0.3-0.7-0.6-0.9C74.9,46.3,74.5,46.2,74.1,46.2z
			 M84.3,54.2c-0.9,0-1.6-0.1-2.3-0.4c-0.7-0.2-1.2-0.6-1.5-1c-0.4-0.4-0.5-0.9-0.5-1.5v-0.2c0-0.1,0-0.1,0.1-0.2
			c0,0,0.1-0.1,0.2-0.1h2.2c0.1,0,0.1,0,0.2,0.1c0,0.1,0.1,0.1,0.1,0.2v0c0,0.3,0.2,0.5,0.5,0.7c0.3,0.2,0.7,0.3,1.2,0.3
			c0.4,0,0.8-0.1,1.1-0.3c0.3-0.2,0.4-0.4,0.4-0.7c0-0.2-0.1-0.4-0.4-0.5c-0.2-0.1-0.6-0.2-1.1-0.4c-0.6-0.2-1.1-0.3-1.4-0.5
			c-0.8-0.3-1.5-0.6-2-1.1s-0.7-1-0.7-1.8c0-1,0.4-1.7,1.1-2.3c0.7-0.6,1.7-0.8,3-0.8c0.8,0,1.6,0.1,2.2,0.4
			c0.6,0.3,1.1,0.6,1.4,1.1c0.3,0.5,0.5,1,0.5,1.6c0,0.1,0,0.1-0.1,0.2c0,0-0.1,0.1-0.2,0.1H86c-0.1,0-0.1,0-0.2-0.1
			s-0.1-0.1-0.1-0.2c0-0.3-0.1-0.5-0.4-0.7S84.7,46,84.2,46c-0.4,0-0.8,0.1-1.1,0.2c-0.3,0.2-0.4,0.4-0.4,0.6c0,0.3,0.1,0.5,0.4,0.6
			c0.3,0.1,0.7,0.3,1.3,0.4c0.1,0,0.3,0.1,0.5,0.1c0.2,0,0.4,0.1,0.6,0.2c0.9,0.3,1.7,0.6,2.2,1.1c0.5,0.4,0.8,1.1,0.8,1.9
			c0,1-0.4,1.7-1.1,2.3S85.6,54.2,84.3,54.2z M95.9,46c0,0.1,0,0.1-0.1,0.2c0,0.1-0.1,0.1-0.2,0.1h-1.9c-0.1,0-0.1,0-0.1,0.1v4.1
			c0,0.4,0.1,0.7,0.3,1c0.2,0.2,0.5,0.3,0.8,0.3h0.7c0.1,0,0.1,0,0.2,0.1c0.1,0,0.1,0.1,0.1,0.2v1.9c0,0.1-0.1,0.2-0.2,0.2
			c-0.5,0-0.9,0-1.2,0c-1.1,0-1.9-0.2-2.4-0.5c-0.5-0.4-0.8-1-0.8-2v-5.2c0-0.1,0-0.1-0.1-0.1h-1.1c-0.1,0-0.1,0-0.2-0.1
			c0,0-0.1-0.1-0.1-0.2v-1.7c0-0.1,0-0.1,0.1-0.2c0,0,0.1-0.1,0.2-0.1h1.1c0.1,0,0.1,0,0.1-0.1v-2.3c0-0.1,0-0.1,0.1-0.2
			c0,0,0.1-0.1,0.2-0.1h2.2c0.1,0,0.1,0,0.2,0.1c0.1,0.1,0.1,0.1,0.1,0.2v2.3c0,0.1,0,0.1,0.1,0.1h1.9c0.1,0,0.1,0,0.2,0.1
			c0,0.1,0.1,0.1,0.1,0.2V46z"/>
		<path class="st6" d="M41.4,85.8c0,0,0,0.1,0,0.1c0,0-0.1,0.1-0.1,0.1h-4.4c0,0-0.1,0-0.1,0.1v2.4c0,0,0,0.1,0.1,0.1h3
			c0,0,0.1,0,0.1,0c0,0,0,0.1,0,0.1v1c0,0,0,0.1,0,0.1c0,0-0.1,0-0.1,0h-3c0,0-0.1,0-0.1,0.1v2.5c0,0,0,0.1,0.1,0.1h4.4
			c0,0,0.1,0,0.1,0.1c0,0,0,0.1,0,0.1v1c0,0,0,0.1,0,0.1c0,0-0.1,0.1-0.1,0.1h-5.9c0,0-0.1,0-0.1-0.1c0,0-0.1-0.1-0.1-0.1v-8.8
			c0,0,0-0.1,0.1-0.1c0,0,0.1-0.1,0.1-0.1h5.9c0,0,0.1,0,0.1,0.1c0,0,0,0.1,0,0.1V85.8L41.4,85.8z M46,87c0.7,0,1.3,0.2,1.7,0.6
			c0.4,0.4,0.6,1,0.6,1.7v4.3c0,0,0,0.1-0.1,0.1c0,0-0.1,0.1-0.1,0.1h-1.2c0,0-0.1,0-0.1-0.1c0,0,0-0.1,0-0.1v-4
			c0-0.4-0.1-0.7-0.3-1c-0.2-0.2-0.5-0.4-0.9-0.4c-0.4,0-0.7,0.1-0.9,0.4c-0.2,0.2-0.3,0.6-0.3,1v4c0,0,0,0.1,0,0.1
			c0,0-0.1,0.1-0.1,0.1h-1.2c0,0-0.1,0-0.1-0.1c0,0-0.1-0.1-0.1-0.1v-6.4c0,0,0-0.1,0.1-0.1c0,0,0.1,0,0.1,0h1.2c0,0,0.1,0,0.1,0
			c0,0,0,0.1,0,0.1v0.4c0,0,0,0,0,0.1c0,0,0,0,0,0C44.7,87.2,45.2,87,46,87z M53.4,88.1c0,0,0,0.1-0.1,0.1c0,0-0.1,0.1-0.1,0.1h-1.3
			c0,0-0.1,0-0.1,0.1v3.1c0,0.3,0.1,0.6,0.2,0.7c0.1,0.1,0.4,0.2,0.7,0.2h0.4c0,0,0.1,0,0.1,0c0,0,0.1,0.1,0.1,0.1v1
			c0,0.1-0.1,0.2-0.2,0.2l-0.7,0c-0.7,0-1.2-0.1-1.5-0.4c-0.3-0.2-0.5-0.7-0.5-1.3v-3.7c0,0,0-0.1-0.1-0.1h-0.7c0,0-0.1,0-0.1-0.1
			c0,0,0-0.1,0-0.1v-0.9c0,0,0-0.1,0-0.1c0,0,0.1,0,0.1,0h0.7c0,0,0.1,0,0.1-0.1v-1.5c0,0,0-0.1,0-0.1c0,0,0.1,0,0.1,0h1.1
			c0,0,0.1,0,0.1,0c0,0,0.1,0.1,0.1,0.1V87c0,0,0,0.1,0.1,0.1h1.3c0,0,0.1,0,0.1,0c0,0,0.1,0.1,0.1,0.1
			C53.4,87.2,53.4,88.1,53.4,88.1z M60.2,89.7c0,0.2,0.1,0.5,0.1,0.7l0,0.4c0,0.1-0.1,0.2-0.2,0.2H56c0,0-0.1,0-0.1,0.1
			c0,0.3,0.1,0.5,0.1,0.6c0.2,0.6,0.7,0.9,1.5,1c0.6,0,1.1-0.2,1.4-0.7c0-0.1,0.1-0.1,0.1-0.1c0,0,0.1,0,0.1,0l0.8,0.7
			c0.1,0.1,0.1,0.1,0,0.2c-0.3,0.4-0.6,0.7-1.1,0.9c-0.5,0.2-1,0.3-1.5,0.3c-0.7,0-1.3-0.2-1.7-0.5c-0.5-0.3-0.8-0.7-1-1.3
			c-0.2-0.5-0.3-1.1-0.3-2c0-0.5,0.1-0.9,0.2-1.2c0.2-0.6,0.5-1.1,1-1.4c0.5-0.3,1.1-0.5,1.7-0.5C59.1,87,60,87.9,60.2,89.7z
			 M57.3,88.3c-0.3,0-0.6,0.1-0.8,0.2c-0.2,0.2-0.4,0.4-0.4,0.7C56,89.3,56,89.5,56,89.8c0,0,0,0.1,0.1,0.1h2.6c0,0,0.1,0,0.1-0.1
			c0-0.2,0-0.4-0.1-0.5c-0.1-0.3-0.2-0.6-0.5-0.7C58,88.4,57.7,88.3,57.3,88.3L57.3,88.3z M64.8,87c0.3,0,0.5,0.1,0.7,0.2
			c0.1,0,0.1,0.1,0.1,0.2l-0.2,1.2c0,0.1-0.1,0.1-0.2,0.1c-0.1,0-0.3-0.1-0.5-0.1c-0.1,0-0.2,0-0.3,0c-0.4,0-0.7,0.1-0.9,0.4
			c-0.2,0.2-0.4,0.6-0.4,0.9v3.7c0,0,0,0.1,0,0.1c0,0-0.1,0.1-0.1,0.1h-1.2c0,0-0.1,0-0.1-0.1c0,0-0.1-0.1-0.1-0.1v-6.4
			c0,0,0-0.1,0.1-0.1c0,0,0.1,0,0.1,0H63c0,0,0.1,0,0.1,0c0,0,0,0.1,0,0.1v0.6c0,0,0,0.1,0,0.1c0,0,0,0,0.1,0
			C63.6,87.3,64.1,87,64.8,87z M72.2,88.8c0.2,0.4,0.2,1,0.2,1.6c0,0.6-0.1,1.1-0.2,1.6c-0.2,0.6-0.5,1-0.9,1.3
			c-0.4,0.3-1,0.5-1.6,0.5c-0.6,0-1.1-0.2-1.5-0.7c0,0,0,0-0.1,0c0,0,0,0,0,0.1V96c0,0,0,0.1,0,0.1c0,0-0.1,0.1-0.1,0.1h-1.2
			c0,0-0.1,0-0.1-0.1c0,0-0.1-0.1-0.1-0.1v-8.8c0,0,0-0.1,0.1-0.1c0,0,0.1,0,0.1,0H68c0,0,0.1,0,0.1,0c0,0,0,0.1,0,0.1v0.4
			c0,0,0,0,0,0.1c0,0,0,0,0.1,0c0.4-0.5,0.9-0.7,1.5-0.7s1.1,0.2,1.6,0.5C71.7,87.8,72,88.2,72.2,88.8z M70.5,92
			c0.3-0.4,0.4-0.9,0.4-1.6c0-0.6-0.1-1.1-0.3-1.5c-0.2-0.4-0.6-0.6-1.1-0.6c-0.5,0-0.8,0.2-1,0.6c-0.2,0.3-0.3,0.8-0.3,1.5
			c0,0.7,0.1,1.2,0.3,1.6c0.2,0.4,0.6,0.6,1,0.6C70,92.5,70.3,92.4,70.5,92z M77,87c0.3,0,0.5,0.1,0.7,0.2c0.1,0,0.1,0.1,0.1,0.2
			l-0.2,1.2c0,0.1-0.1,0.1-0.2,0.1c-0.1,0-0.3-0.1-0.5-0.1c-0.1,0-0.2,0-0.3,0c-0.4,0-0.7,0.1-0.9,0.4c-0.2,0.2-0.4,0.6-0.4,0.9v3.7
			c0,0,0,0.1,0,0.1c0,0-0.1,0.1-0.1,0.1h-1.2c0,0-0.1,0-0.1-0.1c0,0-0.1-0.1-0.1-0.1v-6.4c0,0,0-0.1,0.1-0.1c0,0,0.1,0,0.1,0h1.2
			c0,0,0.1,0,0.1,0c0,0,0,0.1,0,0.1v0.6c0,0,0,0.1,0,0.1c0,0,0,0,0.1,0C75.9,87.3,76.4,87,77,87z M79.7,86.2c-0.3,0-0.5-0.1-0.7-0.3
			c-0.2-0.2-0.3-0.4-0.3-0.7c0-0.3,0.1-0.5,0.3-0.7c0.2-0.2,0.4-0.3,0.7-0.3c0.3,0,0.5,0.1,0.7,0.3c0.2,0.2,0.3,0.4,0.3,0.7
			c0,0.3-0.1,0.5-0.3,0.7C80.2,86.1,80,86.2,79.7,86.2z M79.1,93.7c0,0-0.1,0-0.1-0.1c0,0-0.1-0.1-0.1-0.1v-6.4c0,0,0-0.1,0.1-0.1
			c0,0,0.1-0.1,0.1-0.1h1.2c0,0,0.1,0,0.1,0.1c0,0,0,0.1,0,0.1v6.4c0,0,0,0.1,0,0.1c0,0-0.1,0.1-0.1,0.1
			C80.3,93.7,79.1,93.7,79.1,93.7z M84.6,93.8c-0.5,0-1-0.1-1.4-0.2c-0.4-0.2-0.7-0.4-1-0.7c-0.2-0.3-0.3-0.6-0.3-0.9v-0.1
			c0,0,0-0.1,0-0.1c0,0,0.1,0,0.1,0h1.1c0,0,0.1,0,0.1,0c0,0,0,0.1,0,0.1v0c0,0.2,0.1,0.4,0.4,0.6c0.2,0.2,0.5,0.2,0.9,0.2
			c0.3,0,0.6-0.1,0.8-0.2c0.2-0.1,0.3-0.3,0.3-0.5c0-0.2-0.1-0.4-0.3-0.5c-0.2-0.1-0.5-0.2-0.9-0.3L84.2,91
			c-0.4-0.1-0.8-0.3-1.1-0.4c-0.3-0.1-0.6-0.4-0.8-0.6c-0.2-0.3-0.3-0.6-0.3-1c0-0.6,0.2-1.1,0.7-1.4c0.5-0.4,1.1-0.5,1.9-0.5
			c0.5,0,1,0.1,1.4,0.2c0.4,0.2,0.7,0.4,0.9,0.7c0.2,0.3,0.3,0.6,0.3,1c0,0,0,0.1,0,0.1c0,0-0.1,0-0.1,0H86c0,0-0.1,0-0.1,0
			c0,0,0-0.1,0-0.1c0-0.2-0.1-0.4-0.3-0.6c-0.2-0.2-0.5-0.2-0.9-0.2c-0.3,0-0.6,0.1-0.8,0.2c-0.2,0.1-0.3,0.3-0.3,0.5
			c0,0.2,0.1,0.4,0.3,0.5c0.2,0.1,0.6,0.2,1,0.4l0.3,0.1c0.5,0.1,0.8,0.3,1.2,0.4c0.3,0.1,0.6,0.3,0.8,0.6c0.2,0.3,0.3,0.6,0.3,1
			c0,0.6-0.2,1.1-0.7,1.4C86.1,93.6,85.5,93.8,84.6,93.8z M94.2,89.7c0,0.2,0.1,0.5,0.1,0.7l0,0.4c0,0.1-0.1,0.2-0.2,0.2H90
			c0,0-0.1,0-0.1,0.1c0,0.3,0.1,0.5,0.1,0.6c0.2,0.6,0.7,0.9,1.5,1c0.6,0,1.1-0.2,1.4-0.7c0-0.1,0.1-0.1,0.1-0.1c0,0,0.1,0,0.1,0
			l0.8,0.7c0.1,0.1,0.1,0.1,0,0.2c-0.3,0.4-0.6,0.7-1.1,0.9c-0.4,0.2-0.9,0.3-1.5,0.3c-0.7,0-1.3-0.2-1.7-0.5
			c-0.5-0.3-0.8-0.7-1-1.3c-0.2-0.5-0.3-1.1-0.3-2c0-0.5,0.1-0.9,0.2-1.2c0.2-0.6,0.5-1.1,1-1.4c0.5-0.3,1.1-0.5,1.7-0.5
			C93,87,94,87.9,94.2,89.7L94.2,89.7z M91.3,88.3c-0.3,0-0.6,0.1-0.8,0.2c-0.2,0.2-0.4,0.4-0.4,0.7C90,89.3,90,89.5,90,89.8
			c0,0,0,0.1,0.1,0.1h2.6c0,0,0.1,0,0.1-0.1c0-0.2,0-0.4-0.1-0.5c-0.1-0.3-0.2-0.6-0.5-0.7C92,88.4,91.7,88.3,91.3,88.3L91.3,88.3z"
			/>
		<path class="st5" d="M56.7,104.4c0,0,0,0.1-0.1,0.1c0,0-0.1,0.1-0.1,0.1h-4.3c0,0-0.1,0-0.1,0.1v2c0,0,0,0.1,0.1,0.1h2.8
			c0,0,0.1,0,0.1,0c0,0,0.1,0.1,0.1,0.1v1.3c0,0,0,0.1-0.1,0.1c0,0-0.1,0-0.1,0h-2.8c0,0-0.1,0-0.1,0.1v3.6c0,0,0,0.1,0,0.1
			c0,0-0.1,0.1-0.1,0.1h-1.5c0,0-0.1,0-0.1-0.1c0,0-0.1-0.1-0.1-0.1v-8.8c0,0,0-0.1,0.1-0.1c0,0,0.1-0.1,0.1-0.1h6
			c0,0,0.1,0,0.1,0.1c0,0,0.1,0.1,0.1,0.1C56.7,103.2,56.7,104.4,56.7,104.4z M62.5,112.1c-0.1,0-0.1,0-0.2-0.1l-0.4-1.3
			c0,0,0-0.1-0.1-0.1h-3.2c0,0,0,0-0.1,0.1l-0.4,1.3c0,0.1-0.1,0.1-0.2,0.1h-1.7c-0.1,0-0.1,0-0.1-0.1c0,0,0-0.1,0-0.1l2.8-8.8
			c0-0.1,0.1-0.1,0.2-0.1h2c0.1,0,0.1,0,0.2,0.1l2.8,8.8c0,0,0,0,0,0.1c0,0.1,0,0.1-0.1,0.1H62.5z M59,109.2
			C59,109.2,59.1,109.3,59,109.2l2.3,0.1c0.1,0,0.1,0,0.1-0.1l-1.2-3.9c0,0,0-0.1,0-0.1c0,0,0,0,0,0.1L59,109.2z M65.6,112.1
			c0,0-0.1,0-0.1-0.1c0,0-0.1-0.1-0.1-0.1v-8.8c0,0,0-0.1,0.1-0.1c0,0,0.1-0.1,0.1-0.1h1.5c0,0,0.1,0,0.1,0.1c0,0,0,0.1,0,0.1v7.3
			c0,0,0,0.1,0.1,0.1h4.3c0,0,0.1,0,0.1,0c0,0,0,0.1,0,0.1v1.3c0,0,0,0.1,0,0.1c0,0-0.1,0.1-0.1,0.1
			C71.6,112.1,65.6,112.1,65.6,112.1z M73,112.1c0,0-0.1,0-0.1-0.1c0,0,0-0.1,0-0.1v-8.8c0,0,0-0.1,0-0.1c0,0,0.1-0.1,0.1-0.1h1.5
			c0,0,0.1,0,0.1,0.1c0,0,0.1,0.1,0.1,0.1v7.3c0,0,0,0.1,0.1,0.1h4.3c0,0,0.1,0,0.1,0c0,0,0,0.1,0,0.1v1.3c0,0,0,0.1,0,0.1
			c0,0-0.1,0.1-0.1,0.1H73z M53.5,122.7C53.5,122.8,53.5,122.8,53.5,122.7C53.5,122.8,53.5,122.8,53.5,122.7l3.6,0.1
			c0,0,0.1,0,0.1,0c0,0,0,0.1,0,0.1v1.3c0,0,0,0.1,0,0.1c0,0-0.1,0.1-0.1,0.1h-5.9c0,0-0.1,0-0.1-0.1c0,0,0-0.1,0-0.1V123
			c0-0.1,0-0.1,0.1-0.2c0.4-0.4,0.9-0.9,1.3-1.4c0.4-0.5,0.7-0.8,0.8-0.9c0.2-0.3,0.5-0.6,0.7-0.8c0.8-0.9,1.2-1.5,1.2-2
			c0-0.3-0.1-0.6-0.3-0.8c-0.2-0.2-0.5-0.3-0.8-0.3s-0.6,0.1-0.8,0.3c-0.2,0.2-0.3,0.5-0.3,0.8v0.3c0,0,0,0.1-0.1,0.1
			c0,0-0.1,0-0.1,0h-1.5c0,0-0.1,0-0.1,0c0,0-0.1-0.1-0.1-0.1v-0.6c0-0.5,0.2-0.9,0.4-1.3c0.3-0.4,0.6-0.6,1.1-0.8
			c0.5-0.2,1-0.3,1.5-0.3c0.6,0,1.2,0.1,1.6,0.3c0.5,0.2,0.8,0.5,1.1,0.9c0.2,0.4,0.4,0.8,0.4,1.3c0,0.4-0.1,0.7-0.3,1.1
			c-0.2,0.4-0.5,0.8-0.8,1.2c-0.3,0.3-0.6,0.7-0.9,1c-0.3,0.3-0.8,0.8-1.4,1.4C53.7,122.5,53.5,122.7,53.5,122.7z M61.5,124.5
			c-1,0-1.7-0.3-2.3-0.8c-0.6-0.5-0.8-1.3-0.8-2.2v-3.4c0-0.9,0.3-1.6,0.8-2.2c0.6-0.5,1.3-0.8,2.3-0.8c1,0,1.7,0.3,2.3,0.8
			c0.6,0.5,0.8,1.2,0.8,2.2v3.4c0,0.9-0.3,1.6-0.8,2.2C63.2,124.3,62.5,124.5,61.5,124.5z M61.5,123c0.4,0,0.7-0.1,0.9-0.4
			c0.2-0.2,0.3-0.6,0.3-1v-3.6c0-0.4-0.1-0.7-0.3-1c-0.2-0.2-0.5-0.4-0.9-0.4c-0.4,0-0.7,0.1-0.9,0.4c-0.2,0.2-0.4,0.6-0.4,1v3.6
			c0,0.4,0.1,0.7,0.4,1C60.8,122.8,61.1,123,61.5,123z M68.3,122.7C68.3,122.8,68.3,122.8,68.3,122.7
			C68.3,122.8,68.3,122.8,68.3,122.7l3.6,0.1c0,0,0.1,0,0.1,0c0,0,0,0.1,0,0.1v1.3c0,0,0,0.1,0,0.1c0,0-0.1,0.1-0.1,0.1H66
			c0,0-0.1,0-0.1-0.1c0,0-0.1-0.1-0.1-0.1V123c0-0.1,0-0.1,0.1-0.2c0.4-0.4,0.9-0.9,1.3-1.4c0.4-0.5,0.7-0.8,0.8-0.9
			c0.2-0.3,0.5-0.6,0.7-0.8c0.8-0.9,1.2-1.5,1.2-2c0-0.3-0.1-0.6-0.3-0.8c-0.2-0.2-0.5-0.3-0.8-0.3c-0.3,0-0.6,0.1-0.8,0.3
			c-0.2,0.2-0.3,0.5-0.3,0.8v0.3c0,0,0,0.1,0,0.1c0,0-0.1,0-0.1,0h-1.5c0,0-0.1,0-0.1,0c0,0-0.1-0.1-0.1-0.1v-0.6
			c0-0.5,0.2-0.9,0.4-1.3c0.3-0.4,0.6-0.6,1.1-0.8c0.4-0.2,0.9-0.3,1.5-0.3c0.6,0,1.2,0.1,1.6,0.3c0.5,0.2,0.8,0.5,1.1,0.9
			c0.2,0.4,0.4,0.8,0.4,1.3c0,0.4-0.1,0.7-0.3,1.1c-0.2,0.4-0.5,0.8-0.8,1.2c-0.3,0.3-0.6,0.7-0.9,1c-0.3,0.3-0.8,0.8-1.4,1.4
			C68.5,122.5,68.3,122.7,68.3,122.7z M78.6,120c0.2,0.4,0.3,0.9,0.3,1.4c0,0.5-0.1,0.9-0.2,1.3c-0.2,0.6-0.6,1-1,1.3
			c-0.5,0.3-1.1,0.5-1.7,0.5c-0.7,0-1.2-0.2-1.7-0.5c-0.5-0.3-0.9-0.8-1.1-1.3c-0.1-0.3-0.2-0.7-0.2-1.1c0-0.1,0.1-0.2,0.2-0.2h1.5
			c0.1,0,0.2,0.1,0.2,0.2c0,0.3,0.1,0.5,0.1,0.6c0.1,0.2,0.2,0.4,0.4,0.5c0.2,0.1,0.4,0.2,0.6,0.2c0.5,0,0.8-0.2,1-0.6
			c0.1-0.3,0.2-0.6,0.2-0.9c0-0.4-0.1-0.7-0.2-1c-0.2-0.4-0.5-0.6-1-0.6c-0.1,0-0.2,0-0.3,0.1c-0.1,0.1-0.2,0.1-0.4,0.2
			c0,0-0.1,0-0.1,0c-0.1,0-0.1,0-0.1-0.1l-0.8-1.1c0,0,0-0.1,0-0.1c0-0.1,0-0.1,0.1-0.1l2.1-1.8c0,0,0,0,0-0.1c0,0,0,0-0.1,0h-3.1
			c0,0-0.1,0-0.1-0.1c0,0-0.1-0.1-0.1-0.1v-1.3c0,0,0-0.1,0.1-0.1c0,0,0.1-0.1,0.1-0.1h5.4c0,0,0.1,0,0.1,0.1c0,0,0,0.1,0,0.1v1.4
			c0,0.1,0,0.1-0.1,0.2l-1.7,1.6c0,0,0,0,0,0.1c0,0,0,0,0.1,0C77.7,118.8,78.3,119.3,78.6,120z"/>
	</g>
</g>
<g id="Layer_2">
</g>
</svg>
