<?xml version="1.0" encoding="utf-8"?>
<!-- Generator: Adobe Illustrator 27.7.0, SVG Export Plug-In . SVG Version: 6.00 Build 0)  -->
<svg version="1.1" xmlns="http://www.w3.org/2000/svg" xmlns:xlink="http://www.w3.org/1999/xlink" x="0px" y="0px"
	 viewBox="0 0 130 150" style="enable-background:new 0 0 130 150;" xml:space="preserve">
<style type="text/css">
	.st0{fill:#FFFFFF;}
	.st1{fill:#F2F3F2;}
	.st2{fill:#DCDEDC;}
	.st3{fill:#FF492C;}
	.st4{fill:#252530;}
</style>
<g id="Layer_1">
	<g>
		<path class="st0" d="M14.4,112.6L66,138.9l49.6-26.2V10.1H14.4V112.6z"/>
		<path class="st1" d="M116.6,10.5l-103.2,104l53.5,26.5l49.7-25.4L116.6,10.5z"/>
		<path class="st2" d="M11.1,44.3v70.6l1.8,0.9L64.4,142l1.6,0.8l1.6-0.8l49.7-26.2l1.8-0.9V6.7h-108V44.3z M14.4,112.9V10.1h101.2
			v102.8L66,139.1L14.4,112.9z"/>
		<path class="st3" d="M65.1,11.8c0.5,0,1,0,1.6,0.1l-1.6,3c-2.3-0.1-4.4,1.7-4.6,4c-0.1,2.3,1.7,4.4,4,4.6h0.5c1,0,2.1-0.4,2.9-1
			l1.7,2.9c-1.3,0.9-2.9,1.4-4.6,1.4c-4.2,0.1-7.7-3-7.8-7.2c-0.1-4.2,3-7.7,7.2-7.8C64.4,11.8,65.1,11.8,65.1,11.8z M70.4,18.2
			l2,3.3l-2,3.1l-1.8-3.1h-3.8l2-3.3H70.4z M67.3,17c0-0.5,0.1-1,0.4-1.4c0.3-0.4,0.8-0.8,1.2-1l0.3-0.1c0.5-0.3,0.7-0.4,0.7-0.7
			s-0.4-0.5-0.7-0.5c-0.5,0-0.9,0.3-1.2,0.8l-0.7-0.7c0.1-0.3,0.4-0.5,0.7-0.8c0.4-0.3,0.8-0.3,1.2-0.3s0.9,0.1,1.2,0.4
			s0.5,0.7,0.5,1c0,0.7-0.4,1.2-1.2,1.4l-0.4,0.3c-0.4,0.3-0.7,0.4-0.8,0.8h2.3v0.9C70.8,17.1,67.3,17,67.3,17z M65.1,33.3l12.4-7
			V6.7H52.5v19.4C52.5,26.1,65.1,33.3,65.1,33.3z M121.6,79.5H8.6l-4.2,9.1l4.2,9.1h113l4-9.1L121.6,79.5z"/>
		<path class="st4" d="M26.4,59.9c0.9,0,1.6,0.2,2.3,0.5c0.7,0.3,1.2,0.8,1.5,1.5c0.4,0.6,0.5,1.4,0.5,2.2c0,0.8-0.2,1.6-0.5,2.2
			c-0.4,0.6-0.9,1.1-1.6,1.4c-0.7,0.3-1.4,0.5-2.3,0.5h-2.8c-0.1,0-0.1,0-0.1,0.1v5c0,0.1,0,0.1-0.1,0.2c0,0-0.1,0.1-0.2,0.1h-2.3
			c-0.1,0-0.1,0-0.2-0.1s-0.1-0.1-0.1-0.2V60.2c0-0.1,0-0.1,0.1-0.2c0,0,0.1-0.1,0.2-0.1C20.9,59.9,26.4,59.9,26.4,59.9z M26,66.1
			c0.6,0,1.1-0.2,1.4-0.5c0.4-0.3,0.5-0.8,0.5-1.4c0-0.6-0.2-1-0.5-1.4c-0.4-0.4-0.8-0.5-1.4-0.5h-2.5c-0.1,0-0.1,0-0.1,0.1V66
			c0,0.1,0,0.1,0.1,0.1H26z M40.6,67.6c0.1,0.5,0.1,1,0.1,1.7c0,0.2-0.1,0.2-0.2,0.2h-6c-0.1,0-0.1,0-0.1,0.1c0,0.3,0.1,0.5,0.2,0.8
			c0.3,0.7,1,1.1,2.1,1.1c0.8,0,1.5-0.3,2-1c0.1-0.1,0.1-0.1,0.2-0.1c0,0,0.1,0,0.1,0.1l1.4,1.4c0.1,0.1,0.1,0.1,0.1,0.2
			c0,0,0,0.1-0.1,0.2c-0.4,0.5-1,1-1.7,1.2c-0.7,0.3-1.4,0.4-2.2,0.4c-1.1,0-2.1-0.3-2.8-0.8c-0.8-0.5-1.3-1.2-1.7-2.1
			c-0.3-0.7-0.4-1.5-0.4-2.6c0-0.7,0.1-1.4,0.3-1.9c0.3-0.9,0.8-1.7,1.6-2.2c0.7-0.5,1.6-0.8,2.7-0.8c1.3,0,2.4,0.4,3.1,1.1
			C40,65.3,40.5,66.3,40.6,67.6z M36.1,65.8c-0.8,0-1.4,0.4-1.6,1.1c-0.1,0.2-0.1,0.4-0.1,0.6c0,0.1,0,0.1,0.1,0.1h3.4
			c0.1,0,0.1,0,0.1-0.1c-0.1-0.4-0.1-0.6-0.1-0.5c-0.1-0.4-0.3-0.7-0.6-0.9C36.9,65.9,36.5,65.8,36.1,65.8z M47.4,63.4
			c0.5,0,0.8,0.1,1.1,0.3c0.1,0.1,0.1,0.1,0.1,0.3l-0.4,2.2c0,0.2-0.1,0.2-0.3,0.1c-0.2-0.1-0.4-0.1-0.7-0.1c-0.1,0-0.3,0-0.4,0
			c-0.5,0-0.9,0.2-1.2,0.5c-0.3,0.3-0.5,0.7-0.5,1.2v5.3c0,0.1,0,0.1-0.1,0.2c0,0-0.1,0.1-0.2,0.1h-2.3c-0.1,0-0.1,0-0.2-0.1
			c0,0-0.1-0.1-0.1-0.2v-9.6c0-0.1,0-0.1,0.1-0.2c0.1,0,0.1-0.1,0.2-0.1h2.3c0.1,0,0.1,0,0.2,0.1c0.1,0.1,0.1,0.1,0.1,0.2v0.7
			c0,0,0,0.1,0,0.1c0,0,0,0,0.1,0C45.8,63.8,46.5,63.4,47.4,63.4z M55.8,63.6c0.1,0,0.1,0,0.2,0.1c0,0,0.1,0.1,0.1,0.2v1.9
			c0,0.1,0,0.1-0.1,0.2s-0.1,0.1-0.2,0.1h-1.9c-0.1,0-0.1,0-0.1,0.1v7.4c0,0.1,0,0.1-0.1,0.2s-0.1,0.1-0.2,0.1h-2.3
			c-0.1,0-0.1,0-0.2-0.1S51,73.5,51,73.4V66c0-0.1,0-0.1-0.1-0.1h-1.1c-0.1,0-0.1,0-0.2-0.1c0,0-0.1-0.1-0.1-0.2v-1.9
			c0-0.1,0-0.1,0.1-0.2c0,0,0.1-0.1,0.2-0.1h1.1c0.1,0,0.1,0,0.1-0.1V63c0-0.8,0.1-1.4,0.4-1.9c0.3-0.4,0.7-0.8,1.2-1
			c0.6-0.2,1.3-0.3,2.3-0.2h0.7c0.1,0,0.1,0,0.2,0.1c0.1,0.1,0.1,0.1,0.1,0.2v1.6c0,0.1,0,0.1-0.1,0.2c0,0.1-0.1,0.1-0.2,0.1H55
			c-0.5,0-0.8,0.1-1,0.3c-0.2,0.2-0.3,0.5-0.3,1v0.2c0,0.1,0,0.1,0.1,0.1C53.9,63.6,55.8,63.6,55.8,63.6z M61.4,73.8
			c-1.1,0-2-0.3-2.8-0.9c-0.8-0.6-1.3-1.4-1.6-2.3c-0.2-0.6-0.3-1.3-0.3-2c0-0.8,0.1-1.5,0.3-2.1c0.3-1,0.8-1.7,1.6-2.3
			c0.8-0.5,1.7-0.8,2.8-0.8c1.1,0,2,0.3,2.7,0.8c0.7,0.5,1.3,1.3,1.6,2.3c0.2,0.7,0.3,1.3,0.3,2c0,0.7-0.1,1.4-0.3,2
			c-0.3,1-0.8,1.8-1.6,2.4C63.5,73.5,62.5,73.8,61.4,73.8z M61.4,71.4c0.4,0,0.8-0.1,1.1-0.4c0.3-0.3,0.5-0.6,0.7-1.1
			c0.1-0.4,0.1-0.9,0.1-1.4c0-0.5,0-1-0.1-1.4c-0.1-0.4-0.4-0.8-0.7-1c-0.3-0.2-0.7-0.4-1.1-0.4c-0.4,0-0.8,0.1-1.1,0.4
			c-0.3,0.3-0.5,0.6-0.6,1c-0.1,0.3-0.2,0.8-0.2,1.4c0,0.6,0,1,0.1,1.4c0.1,0.5,0.3,0.8,0.7,1.1C60.6,71.3,61,71.4,61.4,71.4z
			 M72.9,63.4c0.5,0,0.8,0.1,1.1,0.3c0.1,0.1,0.1,0.1,0.1,0.3l-0.4,2.2c0,0.2-0.1,0.2-0.3,0.1c-0.2-0.1-0.4-0.1-0.7-0.1
			c-0.1,0-0.2,0-0.4,0c-0.5,0-0.9,0.2-1.2,0.5c-0.3,0.3-0.5,0.7-0.5,1.2v5.3c0,0.1,0,0.1-0.1,0.2c0,0-0.1,0.1-0.2,0.1h-2.3
			c-0.1,0-0.1,0-0.2-0.1c0,0-0.1-0.1-0.1-0.2v-9.6c0-0.1,0-0.1,0.1-0.2c0.1,0,0.1-0.1,0.2-0.1h2.3c0.1,0,0.1,0,0.2,0.1
			c0.1,0.1,0.1,0.1,0.1,0.2v0.7c0,0,0,0.1,0,0.1c0,0,0.1,0,0.1,0C71.3,63.8,72,63.4,72.9,63.4z M86.5,63.4c1,0,1.8,0.3,2.4,0.9
			c0.6,0.6,0.9,1.5,0.9,2.6v6.5c0,0.1,0,0.1-0.1,0.2s-0.1,0.1-0.2,0.1h-2.3c-0.1,0-0.1,0-0.2-0.1c0,0-0.1-0.1-0.1-0.2v-5.9
			c0-0.5-0.1-1-0.4-1.3c-0.3-0.3-0.6-0.5-1.1-0.5c-0.5,0-0.8,0.2-1.1,0.5C84.1,66.6,84,67,84,67.5v5.9c0,0.1,0,0.1-0.1,0.2
			c-0.1,0-0.1,0.1-0.2,0.1h-2.3c-0.1,0-0.1,0-0.2-0.1s-0.1-0.1-0.1-0.2v-5.9c0-0.5-0.1-0.9-0.4-1.3c-0.3-0.3-0.7-0.5-1.1-0.5
			c-0.4,0-0.8,0.1-1,0.4c-0.3,0.3-0.4,0.6-0.5,1v6.2c0,0.1,0,0.1-0.1,0.2c-0.1,0-0.1,0.1-0.2,0.1h-2.3c-0.1,0-0.1,0-0.2-0.1
			c0,0-0.1-0.1-0.1-0.2v-9.6c0-0.1,0-0.1,0.1-0.2c0,0,0.1-0.1,0.2-0.1h2.3c0.1,0,0.1,0,0.2,0.1c0,0.1,0.1,0.1,0.1,0.2v0.8
			c0,0,0,0.1,0,0.1c0,0,0.1,0,0.1-0.1c0.5-0.8,1.4-1.2,2.5-1.2c0.7,0,1.2,0.1,1.7,0.4c0.5,0.3,0.9,0.7,1.1,1.2c0,0.1,0.1,0.1,0.1,0
			c0.3-0.5,0.7-0.9,1.2-1.2C85.4,63.5,85.9,63.4,86.5,63.4z M100.6,67.6c0.1,0.5,0.1,1,0.1,1.7c0,0.2-0.1,0.2-0.3,0.2h-6
			c-0.1,0-0.1,0-0.1,0.1c0,0.3,0.1,0.5,0.2,0.8c0.3,0.7,1,1.1,2.1,1.1c0.8,0,1.5-0.3,2-1c0.1-0.1,0.1-0.1,0.2-0.1c0,0,0.1,0,0.1,0.1
			l1.4,1.4c0.1,0.1,0.1,0.1,0.1,0.2c0,0,0,0.1-0.1,0.2c-0.4,0.5-1,1-1.7,1.2c-0.7,0.3-1.4,0.4-2.2,0.4c-1.1,0-2.1-0.3-2.8-0.8
			c-0.8-0.5-1.3-1.2-1.7-2.1c-0.3-0.7-0.4-1.5-0.4-2.6c0-0.7,0.1-1.4,0.3-1.9c0.3-0.9,0.8-1.7,1.6-2.2s1.6-0.8,2.7-0.8
			c1.3,0,2.4,0.4,3.1,1.1C99.9,65.3,100.4,66.3,100.6,67.6L100.6,67.6z M96,65.8c-0.8,0-1.4,0.4-1.6,1.1c-0.1,0.2-0.1,0.4-0.1,0.6
			c0,0.1,0,0.1,0.1,0.1h3.4c0.1,0,0.1,0,0.1-0.1c-0.1-0.4-0.1-0.6-0.1-0.5c-0.1-0.4-0.3-0.7-0.6-0.9C96.8,65.9,96.4,65.8,96,65.8z
			 M107.4,63.4c0.5,0,0.8,0.1,1.1,0.3c0.1,0.1,0.1,0.1,0.1,0.3l-0.4,2.2c0,0.2-0.1,0.2-0.3,0.1c-0.2-0.1-0.4-0.1-0.7-0.1
			c-0.1,0-0.2,0-0.4,0c-0.5,0-0.9,0.2-1.2,0.5c-0.3,0.3-0.5,0.7-0.5,1.2v5.3c0,0.1,0,0.1-0.1,0.2c-0.1,0-0.1,0.1-0.2,0.1h-2.3
			c-0.1,0-0.1,0-0.2-0.1c-0.1,0-0.1-0.1-0.1-0.2v-9.6c0-0.1,0-0.1,0.1-0.2c0,0,0.1-0.1,0.2-0.1h2.3c0.1,0,0.1,0,0.2,0.1
			c0,0.1,0.1,0.1,0.1,0.2v0.7c0,0,0,0.1,0,0.1c0,0,0,0,0.1,0C105.8,63.8,106.5,63.4,107.4,63.4z M53.5,40.6c0-0.1,0-0.1,0.1-0.2
			c0,0,0.1-0.1,0.2-0.1h2.3c0.1,0,0.1,0,0.2,0.1c0,0.1,0.1,0.1,0.1,0.2v13.2c0,0.1,0,0.1-0.1,0.2c-0.1,0-0.1,0.1-0.2,0.1h-2.3
			c-0.1,0-0.1,0-0.2-0.1s-0.1-0.1-0.1-0.2v-5.4c0-0.1,0-0.1-0.1-0.1h-4.3c-0.1,0-0.1,0-0.1,0.1v5.4c0,0.1,0,0.1-0.1,0.2
			c-0.1,0-0.1,0.1-0.2,0.1h-2.3c-0.1,0-0.1,0-0.2-0.1c-0.1,0-0.1-0.1-0.1-0.2V40.6c0-0.1,0-0.1,0.1-0.2c0,0,0.1-0.1,0.2-0.1h2.3
			c0.1,0,0.1,0,0.2,0.1c0,0.1,0.1,0.1,0.1,0.2v5.3c0,0.1,0,0.1,0.1,0.1h4.3c0.1,0,0.1,0,0.1-0.1V40.6z M59.8,42.9
			c-0.4,0-0.8-0.1-1.1-0.4c-0.3-0.3-0.4-0.7-0.4-1.1c0-0.5,0.1-0.8,0.4-1.1c0.3-0.3,0.7-0.4,1.1-0.4s0.8,0.1,1.1,0.4
			c0.3,0.3,0.4,0.7,0.4,1.1c0,0.4-0.1,0.8-0.4,1.1C60.7,42.7,60.3,42.9,59.8,42.9z M58.7,54.1c-0.1,0-0.1,0-0.2-0.1
			c0,0-0.1-0.1-0.1-0.2v-9.6c0-0.1,0-0.1,0.1-0.2c0.1,0,0.1-0.1,0.2-0.1H61c0.1,0,0.1,0,0.2,0.1c0.1,0,0.1,0.1,0.1,0.2v9.6
			c0,0.1,0,0.1-0.1,0.2c0,0-0.1,0.1-0.2,0.1H58.7z M69.5,44.2c0-0.1,0-0.1,0.1-0.2c0,0,0.1-0.1,0.2-0.1H72c0.1,0,0.1,0,0.2,0.1
			c0,0.1,0.1,0.1,0.1,0.2v8.9c0,1.7-0.5,2.9-1.5,3.7c-1,0.7-2.3,1.1-3.8,1.1c-0.5,0-1,0-1.5-0.1c-0.1,0-0.2-0.1-0.2-0.2l0.1-2
			c0-0.2,0.1-0.2,0.3-0.2c0.5,0.1,0.9,0.1,1.3,0.1c0.8,0,1.5-0.2,1.9-0.5c0.4-0.4,0.7-1,0.7-1.8c0,0,0-0.1,0-0.1c0,0-0.1,0-0.1,0
			c-0.5,0.5-1.2,0.8-2.2,0.8c-0.9,0-1.6-0.2-2.3-0.6c-0.7-0.4-1.2-1.1-1.5-2c-0.2-0.6-0.3-1.4-0.3-2.3c0-1,0.1-1.8,0.4-2.5
			c0.3-0.8,0.7-1.4,1.4-1.9c0.7-0.5,1.4-0.7,2.3-0.7c1,0,1.8,0.3,2.3,0.9c0,0,0.1,0,0.1,0c0,0,0,0,0-0.1
			C69.5,44.7,69.5,44.2,69.5,44.2z M69.3,50.5c0.1-0.4,0.2-0.9,0.2-1.6c0-0.4,0-0.7,0-0.9c0-0.2-0.1-0.4-0.1-0.6
			c-0.1-0.3-0.3-0.6-0.6-0.8c-0.3-0.2-0.6-0.3-1-0.3c-0.4,0-0.7,0.1-1,0.3c-0.3,0.2-0.5,0.5-0.6,0.8c-0.2,0.4-0.3,0.9-0.3,1.6
			c0,0.7,0.1,1.3,0.2,1.6c0.1,0.4,0.3,0.6,0.6,0.8c0.3,0.2,0.6,0.3,1,0.3c0.4,0,0.8-0.1,1-0.3C69,51.2,69.2,50.9,69.3,50.5z
			 M79.5,43.8c1,0,1.9,0.3,2.5,1c0.6,0.6,1,1.5,1,2.6v6.4c0,0.1,0,0.1-0.1,0.2c0,0-0.1,0.1-0.2,0.1h-2.3c-0.1,0-0.1,0-0.2-0.1
			c0,0-0.1-0.1-0.1-0.2V48c0-0.5-0.1-0.9-0.4-1.3c-0.3-0.3-0.7-0.5-1.2-0.5c-0.5,0-0.9,0.2-1.2,0.5C77.1,47,77,47.5,77,48v5.9
			c0,0.1,0,0.1-0.1,0.2s-0.1,0.1-0.2,0.1h-2.3c-0.1,0-0.1,0-0.2-0.1s-0.1-0.1-0.1-0.2V40.6c0-0.1,0-0.1,0.1-0.2c0,0,0.1-0.1,0.2-0.1
			h2.3c0.1,0,0.1,0,0.2,0.1c0,0.1,0.1,0.1,0.1,0.2v4.3c0,0,0,0.1,0,0.1c0,0,0,0,0.1,0C77.6,44.2,78.4,43.8,79.5,43.8z"/>
		<path class="st0" d="M39.1,84.7c0-0.1,0.1-0.1,0.2-0.1h1.2c0,0,0.1,0,0.1,0.1c0,0,0.1,0.1,0.1,0.1v8.8c0,0,0,0.1-0.1,0.1
			c0,0-0.1,0.1-0.1,0.1h-1.2c0,0-0.1,0-0.1-0.1c0,0,0-0.1,0-0.1v-6.2c0,0,0,0,0-0.1c0,0,0,0-0.1,0l-1.6,2.5c0,0.1-0.1,0.1-0.2,0.1
			h-0.6c-0.1,0-0.1,0-0.2-0.1l-1.6-2.5c0,0,0,0,0,0c0,0,0,0,0,0.1v6.2c0,0,0,0.1-0.1,0.1c0,0-0.1,0.1-0.1,0.1h-1.2
			c0,0-0.1,0-0.1-0.1c0,0-0.1-0.1-0.1-0.1v-8.8c0,0,0-0.1,0.1-0.1c0,0,0.1-0.1,0.1-0.1h1.2c0.1,0,0.1,0,0.2,0.1l2.1,3.2
			c0,0,0,0,0.1,0c0,0,0,0,0,0C37,87.9,39.1,84.7,39.1,84.7z M43.3,86.1c-0.3,0-0.5-0.1-0.7-0.3c-0.2-0.2-0.3-0.4-0.3-0.7
			c0-0.3,0.1-0.5,0.3-0.7c0.2-0.2,0.4-0.3,0.7-0.3c0.3,0,0.5,0.1,0.7,0.3c0.2,0.2,0.3,0.4,0.3,0.7c0,0.3-0.1,0.5-0.3,0.7
			C43.8,86.1,43.6,86.1,43.3,86.1z M42.7,93.7c0,0-0.1,0-0.1-0.1c0,0-0.1-0.1-0.1-0.1v-6.4c0,0,0-0.1,0.1-0.1c0,0,0.1-0.1,0.1-0.1
			h1.2c0,0,0.1,0,0.1,0.1c0,0,0,0.1,0,0.1v6.4c0,0,0,0.1,0,0.1c0,0-0.1,0.1-0.1,0.1H42.7z M49.9,84.7c0,0,0-0.1,0.1-0.1
			c0,0,0.1-0.1,0.1-0.1h1.2c0,0,0.1,0,0.1,0.1c0,0,0,0.1,0,0.1v8.8c0,0,0,0.1,0,0.1c0,0-0.1,0.1-0.1,0.1h-1.2c0,0-0.1,0-0.1-0.1
			c0,0-0.1-0.1-0.1-0.1v-0.4c0,0,0,0,0-0.1c0,0,0,0-0.1,0c-0.4,0.5-0.9,0.7-1.5,0.7s-1.1-0.2-1.6-0.5C46.3,93,46,92.6,45.8,92
			c-0.2-0.5-0.2-1-0.2-1.6c0-0.6,0.1-1.1,0.2-1.6c0.2-0.6,0.5-1,0.9-1.3c0.4-0.3,1-0.5,1.6-0.5c0.6,0,1.1,0.2,1.5,0.7c0,0,0,0,0.1,0
			c0,0,0,0,0-0.1L49.9,84.7L49.9,84.7z M49.6,91.9c0.2-0.4,0.3-0.9,0.3-1.5c0-0.7-0.1-1.2-0.3-1.6c-0.2-0.4-0.6-0.6-1-0.6
			c-0.4,0-0.8,0.2-1,0.5c-0.3,0.4-0.4,0.9-0.4,1.6c0,0.6,0.1,1.1,0.3,1.5c0.2,0.4,0.6,0.6,1.1,0.6C49,92.5,49.3,92.3,49.6,91.9z
			 M52.8,90.4c0,0-0.1,0-0.1,0c0,0-0.1-0.1-0.1-0.1v-1c0,0,0-0.1,0.1-0.1c0,0,0.1,0,0.1,0h4.1c0,0,0.1,0,0.1,0c0,0,0.1,0.1,0.1,0.1
			v1c0,0,0,0.1-0.1,0.1c0,0-0.1,0-0.1,0H52.8z M64.4,84.7c0-0.1,0.1-0.1,0.2-0.1h1.2c0,0,0.1,0,0.1,0.1c0,0,0,0.1,0,0.1v8.8
			c0,0,0,0.1,0,0.1c0,0-0.1,0.1-0.1,0.1h-1.2c0,0-0.1,0-0.1-0.1c0,0-0.1-0.1-0.1-0.1v-6.2c0,0,0,0,0-0.1c0,0,0,0-0.1,0l-1.6,2.5
			c0,0.1-0.1,0.1-0.2,0.1h-0.6c-0.1,0-0.1,0-0.2-0.1l-1.6-2.5c0,0,0,0,0,0c0,0,0,0,0,0.1v6.2c0,0,0,0.1,0,0.1c0,0-0.1,0.1-0.1,0.1
			h-1.2c0,0-0.1,0-0.1-0.1c0,0-0.1-0.1-0.1-0.1v-8.8c0,0,0-0.1,0.1-0.1c0,0,0.1-0.1,0.1-0.1h1.2c0.1,0,0.1,0,0.2,0.1l2.1,3.2
			c0,0,0,0,0.1,0s0,0,0,0C62.2,87.9,64.4,84.7,64.4,84.7z M70.2,86.9c0.5,0,1,0.1,1.4,0.3c0.4,0.2,0.7,0.5,1,0.8
			c0.2,0.3,0.3,0.7,0.3,1.1v4.4c0,0,0,0.1,0,0.1c0,0-0.1,0.1-0.1,0.1h-1.2c0,0-0.1,0-0.1-0.1c0,0-0.1-0.1-0.1-0.1v-0.4
			c0,0,0,0,0-0.1c0,0,0,0-0.1,0c-0.4,0.5-1,0.7-1.9,0.7c-0.7,0-1.2-0.2-1.6-0.5c-0.4-0.3-0.6-0.8-0.6-1.5c0-0.7,0.2-1.2,0.7-1.6
			c0.5-0.4,1.1-0.6,2-0.6h1.4c0,0,0.1,0,0.1-0.1v-0.3c0-0.3-0.1-0.6-0.3-0.8c-0.2-0.2-0.5-0.3-0.9-0.3c-0.3,0-0.6,0.1-0.8,0.2
			c-0.2,0.1-0.3,0.3-0.4,0.5c0,0.1-0.1,0.1-0.2,0.1l-1.3-0.2c0,0-0.1,0-0.1,0c0,0,0-0.1,0-0.1c0.1-0.5,0.4-1,0.9-1.3
			C68.8,87.1,69.4,86.9,70.2,86.9z M69.9,92.6c0.4,0,0.8-0.1,1.1-0.3c0.3-0.2,0.5-0.5,0.5-0.9v-0.6c0,0,0-0.1-0.1-0.1h-1.1
			c-0.5,0-0.8,0.1-1.1,0.3c-0.3,0.2-0.4,0.4-0.4,0.7c0,0.3,0.1,0.5,0.3,0.6C69.3,92.5,69.6,92.6,69.9,92.6L69.9,92.6z M77.6,87
			c0.3,0,0.5,0.1,0.7,0.2c0.1,0,0.1,0.1,0.1,0.2l-0.2,1.2c0,0.1-0.1,0.1-0.2,0.1c-0.1,0-0.3-0.1-0.5-0.1c-0.1,0-0.2,0-0.3,0
			c-0.4,0-0.7,0.1-0.9,0.4c-0.2,0.2-0.4,0.6-0.4,0.9v3.7c0,0,0,0.1,0,0.1c0,0-0.1,0.1-0.1,0.1h-1.2c0,0-0.1,0-0.1-0.1
			c0,0-0.1-0.1-0.1-0.1v-6.4c0,0,0-0.1,0.1-0.1c0,0,0.1,0,0.1,0h1.2c0,0,0.1,0,0.1,0c0,0,0,0.1,0,0.1v0.6c0,0,0,0.1,0,0.1
			c0,0,0,0,0,0C76.4,87.3,76.9,87,77.6,87z M79.5,93.7c0,0-0.1,0-0.1-0.1c0,0-0.1-0.1-0.1-0.1v-8.8c0,0,0-0.1,0.1-0.1
			c0,0,0.1-0.1,0.1-0.1h1.2c0,0,0.1,0,0.1,0.1c0,0,0.1,0.1,0.1,0.1v4.7c0,0,0,0,0,0.1s0,0,0.1,0l2.1-2.3c0.1-0.1,0.1-0.1,0.2-0.1
			h1.4c0.1,0,0.1,0,0.1,0.1c0,0,0,0.1,0,0.1l-1.7,2c0,0,0,0.1,0,0.1l2,4.2c0,0,0,0.1,0,0.1c0,0.1,0,0.1-0.1,0.1h-1.3
			c-0.1,0-0.1,0-0.2-0.1l-1.4-3.3c0,0,0,0-0.1,0c0,0,0,0,0,0l-1,1.2c0,0,0,0.1,0,0.1v2c0,0,0,0.1-0.1,0.1c0,0-0.1,0.1-0.1,0.1
			C80.7,93.7,79.5,93.7,79.5,93.7z M91.3,89.6c0,0.2,0.1,0.5,0.1,0.7l0,0.4c0,0.1-0.1,0.2-0.2,0.2h-4.1c0,0-0.1,0-0.1,0.1
			c0,0.3,0.1,0.5,0.1,0.6c0.2,0.6,0.7,0.9,1.5,1c0.6,0,1.1-0.2,1.4-0.7c0-0.1,0.1-0.1,0.1-0.1c0,0,0.1,0,0.1,0l0.8,0.7
			c0.1,0.1,0.1,0.1,0,0.2c-0.3,0.4-0.6,0.7-1.1,0.9c-0.4,0.2-0.9,0.3-1.5,0.3c-0.7,0-1.3-0.2-1.7-0.5c-0.5-0.3-0.8-0.7-1-1.3
			c-0.2-0.5-0.3-1.1-0.3-2c0-0.5,0.1-0.9,0.2-1.2c0.2-0.6,0.5-1.1,1-1.4c0.5-0.3,1.1-0.5,1.7-0.5C90.2,86.9,91.1,87.8,91.3,89.6z
			 M88.4,88.3c-0.3,0-0.6,0.1-0.8,0.2c-0.2,0.2-0.4,0.4-0.4,0.7c-0.1,0.1-0.1,0.3-0.1,0.6c0,0,0,0.1,0.1,0.1h2.6c0,0,0.1,0,0.1-0.1
			c0-0.2,0-0.4-0.1-0.5c-0.1-0.3-0.2-0.6-0.5-0.7C89.1,88.3,88.8,88.3,88.4,88.3L88.4,88.3z M96.2,88.1c0,0,0,0.1,0,0.1
			c0,0-0.1,0.1-0.1,0.1h-1.3c0,0-0.1,0-0.1,0.1v3.1c0,0.3,0.1,0.6,0.2,0.7c0.1,0.1,0.4,0.2,0.7,0.2h0.4c0,0,0.1,0,0.1,0
			c0,0,0.1,0.1,0.1,0.1v1c0,0.1-0.1,0.2-0.2,0.2l-0.7,0c-0.7,0-1.2-0.1-1.5-0.4c-0.3-0.2-0.5-0.7-0.5-1.3v-3.7c0,0,0-0.1-0.1-0.1
			h-0.7c0,0-0.1,0-0.1-0.1c0,0-0.1-0.1-0.1-0.1v-0.9c0,0,0-0.1,0.1-0.1c0,0,0.1,0,0.1,0h0.7c0,0,0.1,0,0.1-0.1v-1.5
			c0,0,0-0.1,0.1-0.1c0,0,0.1,0,0.1,0h1.1c0,0,0.1,0,0.1,0c0,0,0.1,0.1,0.1,0.1V87c0,0,0,0.1,0.1,0.1H96c0,0,0.1,0,0.1,0
			c0,0,0,0.1,0,0.1C96.2,87.2,96.2,88.1,96.2,88.1z"/>
		<path class="st4" d="M56.7,104.4c0,0,0,0.1-0.1,0.1c0,0-0.1,0.1-0.1,0.1h-4.3c0,0-0.1,0-0.1,0.1v2c0,0,0,0.1,0.1,0.1h2.8
			c0,0,0.1,0,0.1,0c0,0,0.1,0.1,0.1,0.1v1.3c0,0,0,0.1-0.1,0.1c0,0-0.1,0-0.1,0h-2.8c0,0-0.1,0-0.1,0.1v3.6c0,0,0,0.1,0,0.1
			c0,0-0.1,0.1-0.1,0.1h-1.5c0,0-0.1,0-0.1-0.1c0,0-0.1-0.1-0.1-0.1v-8.8c0,0,0-0.1,0.1-0.1c0,0,0.1-0.1,0.1-0.1h6
			c0,0,0.1,0,0.1,0.1c0,0,0.1,0.1,0.1,0.1C56.7,103.1,56.7,104.4,56.7,104.4z M62.5,112.1c-0.1,0-0.1,0-0.2-0.1l-0.4-1.3
			c0,0,0-0.1-0.1-0.1h-3.2c0,0,0,0-0.1,0.1l-0.4,1.3c0,0.1-0.1,0.1-0.2,0.1h-1.7c-0.1,0-0.1,0-0.1-0.1c0,0,0-0.1,0-0.1l2.8-8.8
			c0-0.1,0.1-0.1,0.2-0.1h2c0.1,0,0.1,0,0.2,0.1l2.8,8.8c0,0,0,0,0,0.1c0,0.1,0,0.1-0.1,0.1H62.5z M59,109.2
			C59,109.2,59,109.2,59,109.2l2.3,0.1c0.1,0,0.1,0,0.1-0.1l-1.2-3.9c0,0,0-0.1,0-0.1c0,0,0,0,0,0.1L59,109.2z M65.6,112.1
			c0,0-0.1,0-0.1-0.1c0,0-0.1-0.1-0.1-0.1v-8.8c0,0,0-0.1,0.1-0.1c0,0,0.1-0.1,0.1-0.1h1.5c0,0,0.1,0,0.1,0.1c0,0,0,0.1,0,0.1v7.3
			c0,0,0,0.1,0.1,0.1h4.3c0,0,0.1,0,0.1,0c0,0,0,0.1,0,0.1v1.3c0,0,0,0.1,0,0.1c0,0-0.1,0.1-0.1,0.1
			C71.6,112.1,65.6,112.1,65.6,112.1z M73,112.1c0,0-0.1,0-0.1-0.1c0,0,0-0.1,0-0.1v-8.8c0,0,0-0.1,0-0.1c0,0,0.1-0.1,0.1-0.1h1.5
			c0,0,0.1,0,0.1,0.1c0,0,0.1,0.1,0.1,0.1v7.3c0,0,0,0.1,0.1,0.1h4.3c0,0,0.1,0,0.1,0c0,0,0,0.1,0,0.1v1.3c0,0,0,0.1,0,0.1
			c0,0-0.1,0.1-0.1,0.1H73z M53.5,122.7C53.5,122.7,53.5,122.8,53.5,122.7C53.5,122.8,53.5,122.8,53.5,122.7l3.6,0.1
			c0,0,0.1,0,0.1,0c0,0,0,0.1,0,0.1v1.3c0,0,0,0.1,0,0.1c0,0-0.1,0.1-0.1,0.1h-5.9c0,0-0.1,0-0.1-0.1c0,0,0-0.1,0-0.1V123
			c0-0.1,0-0.1,0.1-0.2c0.4-0.4,0.9-0.9,1.3-1.4c0.4-0.5,0.7-0.8,0.8-0.9c0.2-0.3,0.5-0.6,0.7-0.8c0.8-0.9,1.2-1.5,1.2-2
			c0-0.3-0.1-0.6-0.3-0.8c-0.2-0.2-0.5-0.3-0.8-0.3c-0.3,0-0.6,0.1-0.8,0.3c-0.2,0.2-0.3,0.5-0.3,0.8v0.3c0,0,0,0.1-0.1,0.1
			c0,0-0.1,0-0.1,0h-1.5c0,0-0.1,0-0.1,0c0,0-0.1-0.1-0.1-0.1v-0.6c0-0.5,0.2-0.9,0.4-1.3c0.3-0.4,0.6-0.6,1.1-0.8
			c0.5-0.2,1-0.3,1.5-0.3c0.6,0,1.2,0.1,1.6,0.3c0.5,0.2,0.8,0.5,1.1,0.9c0.2,0.4,0.4,0.8,0.4,1.3c0,0.4-0.1,0.7-0.3,1.1
			c-0.2,0.4-0.5,0.8-0.8,1.2c-0.3,0.3-0.6,0.7-0.9,1c-0.3,0.3-0.8,0.8-1.4,1.4C53.7,122.5,53.5,122.7,53.5,122.7z M61.5,124.5
			c-1,0-1.7-0.3-2.3-0.8c-0.6-0.5-0.8-1.3-0.8-2.2v-3.4c0-0.9,0.3-1.6,0.8-2.2c0.6-0.5,1.3-0.8,2.3-0.8c1,0,1.7,0.3,2.3,0.8
			c0.6,0.5,0.8,1.2,0.8,2.2v3.4c0,0.9-0.3,1.6-0.8,2.2C63.2,124.3,62.5,124.5,61.5,124.5z M61.5,122.9c0.4,0,0.7-0.1,0.9-0.4
			c0.2-0.2,0.3-0.6,0.3-1V118c0-0.4-0.1-0.7-0.3-1c-0.2-0.2-0.5-0.4-0.9-0.4c-0.4,0-0.7,0.1-0.9,0.4c-0.2,0.2-0.4,0.6-0.4,1v3.6
			c0,0.4,0.1,0.7,0.4,1C60.8,122.8,61.1,122.9,61.5,122.9z M68.3,122.7C68.3,122.7,68.3,122.8,68.3,122.7
			C68.3,122.8,68.3,122.8,68.3,122.7l3.6,0.1c0,0,0.1,0,0.1,0c0,0,0,0.1,0,0.1v1.3c0,0,0,0.1,0,0.1c0,0-0.1,0.1-0.1,0.1H66
			c0,0-0.1,0-0.1-0.1c0,0-0.1-0.1-0.1-0.1V123c0-0.1,0-0.1,0.1-0.2c0.4-0.4,0.9-0.9,1.3-1.4c0.4-0.5,0.7-0.8,0.8-0.9
			c0.2-0.3,0.5-0.6,0.7-0.8c0.8-0.9,1.2-1.5,1.2-2c0-0.3-0.1-0.6-0.3-0.8c-0.2-0.2-0.5-0.3-0.8-0.3c-0.3,0-0.6,0.1-0.8,0.3
			c-0.2,0.2-0.3,0.5-0.3,0.8v0.3c0,0,0,0.1,0,0.1c0,0-0.1,0-0.1,0h-1.5c0,0-0.1,0-0.1,0c0,0-0.1-0.1-0.1-0.1v-0.6
			c0-0.5,0.2-0.9,0.4-1.3c0.3-0.4,0.6-0.6,1.1-0.8c0.4-0.2,0.9-0.3,1.5-0.3c0.6,0,1.2,0.1,1.6,0.3c0.5,0.2,0.8,0.5,1.1,0.9
			c0.2,0.4,0.4,0.8,0.4,1.3c0,0.4-0.1,0.7-0.3,1.1c-0.2,0.4-0.5,0.8-0.8,1.2c-0.3,0.3-0.6,0.7-0.9,1c-0.3,0.3-0.8,0.8-1.4,1.4
			C68.5,122.5,68.3,122.7,68.3,122.7z M78.6,120c0.2,0.4,0.3,0.9,0.3,1.4c0,0.5-0.1,0.9-0.2,1.3c-0.2,0.6-0.6,1-1,1.3
			c-0.5,0.3-1.1,0.5-1.7,0.5c-0.7,0-1.2-0.2-1.7-0.5c-0.5-0.3-0.9-0.8-1.1-1.3c-0.1-0.3-0.2-0.7-0.2-1.1c0-0.1,0.1-0.2,0.2-0.2h1.5
			c0.1,0,0.2,0.1,0.2,0.2c0,0.3,0.1,0.5,0.1,0.6c0.1,0.2,0.2,0.4,0.4,0.5c0.2,0.1,0.4,0.2,0.6,0.2c0.5,0,0.8-0.2,1-0.6
			c0.1-0.3,0.2-0.6,0.2-0.9c0-0.4-0.1-0.7-0.2-1c-0.2-0.4-0.5-0.6-1-0.6c-0.1,0-0.2,0-0.3,0.1c-0.1,0.1-0.2,0.1-0.4,0.2
			c0,0-0.1,0-0.1,0c-0.1,0-0.1,0-0.1-0.1l-0.8-1.1c0,0,0-0.1,0-0.1c0-0.1,0-0.1,0.1-0.1l2.1-1.8c0,0,0,0,0-0.1c0,0,0,0-0.1,0h-3.1
			c0,0-0.1,0-0.1-0.1c0,0-0.1-0.1-0.1-0.1v-1.3c0,0,0-0.1,0.1-0.1c0,0,0.1-0.1,0.1-0.1h5.4c0,0,0.1,0,0.1,0.1c0,0,0,0.1,0,0.1v1.4
			c0,0.1,0,0.1-0.1,0.2l-1.7,1.6c0,0,0,0,0,0.1c0,0,0,0,0.1,0C77.7,118.8,78.3,119.3,78.6,120z"/>
	</g>
</g>
<g id="Layer_2">
</g>
</svg>
