<svg width="16" height="16" fill="none" xmlns="http://www.w3.org/2000/svg"><path d="M1.332 5.667h3.333V15H1.332V5.667zm0-3c0 .442.174.866.484 1.178a1.647 1.647 0 002.338 0 1.674 1.674 0 000-2.357 1.647 1.647 0 00-2.338 0c-.31.313-.484.737-.484 1.179zM12.331 15h2a.333.333 0 00.334-.334v-5.6c0-2.513-1.42-3.733-3.407-3.733a2.807 2.807 0 00-2.113.847.273.273 0 01-.48-.18.333.333 0 00-.334-.334h-2A.333.333 0 005.998 6v8.666a.333.333 0 00.333.334h2a.333.333 0 00.334-.334v-5a1.667 1.667 0 013.333 0v5a.333.333 0 00.333.334z" fill="#151417"/></svg>