<?xml version="1.0" encoding="utf-8"?>
<!-- Generator: Adobe Illustrator 27.7.0, SVG Export Plug-In . SVG Version: 6.00 Build 0)  -->
<svg version="1.1" xmlns="http://www.w3.org/2000/svg" xmlns:xlink="http://www.w3.org/1999/xlink" x="0px" y="0px"
	 viewBox="0 0 130 150" style="enable-background:new 0 0 130 150;" xml:space="preserve">
<style type="text/css">
	.st0{fill:#FFFFFF;}
	.st1{fill:#F2F3F2;}
	.st2{fill:#DCDEDC;}
	.st3{fill:#FF492C;}
	.st4{fill:#252530;}
</style>
<g id="Layer_1">
	<g>
		<path class="st0" d="M14.4,112.6L66,138.9l49.6-26.2V10.1H14.4V112.6z"/>
		<path class="st1" d="M116.6,10.5l-103.2,104l53.5,26.5l49.7-25.4L116.6,10.5z"/>
		<path class="st2" d="M11.1,44.3v70.6l1.8,0.9L64.4,142l1.6,0.8l1.6-0.8l49.7-26.2l1.8-0.9V6.7h-108V44.3z M14.4,112.9V10.1h101.2
			v102.8L66,139.1L14.4,112.9z"/>
		<path class="st3" d="M65.1,11.8c0.5,0,1,0,1.6,0.1l-1.6,3c-2.3-0.1-4.4,1.7-4.6,4c-0.1,2.3,1.7,4.4,4,4.6h0.5c1,0,2.1-0.4,2.9-1
			l1.7,2.9c-1.3,0.9-2.9,1.4-4.6,1.4c-4.2,0.1-7.7-3-7.8-7.2c-0.1-4.2,3-7.7,7.2-7.8C64.4,11.8,65.1,11.8,65.1,11.8z M70.4,18.2
			l2,3.3l-2,3.1l-1.8-3.1h-3.8l2-3.3H70.4z M67.3,17c0-0.5,0.1-1,0.4-1.4c0.3-0.4,0.8-0.8,1.2-1l0.3-0.1c0.5-0.3,0.7-0.4,0.7-0.7
			s-0.4-0.5-0.7-0.5c-0.5,0-0.9,0.3-1.2,0.8l-0.7-0.7c0.1-0.3,0.4-0.5,0.7-0.8c0.4-0.3,0.8-0.3,1.2-0.3s0.9,0.1,1.2,0.4
			s0.5,0.7,0.5,1c0,0.7-0.4,1.2-1.2,1.4l-0.4,0.3c-0.4,0.3-0.7,0.4-0.8,0.8h2.3v0.9C70.8,17.1,67.3,17,67.3,17z M65.1,33.3l12.4-7
			V6.7H52.5v19.4C52.5,26.1,65.1,33.3,65.1,33.3z M121.6,79.5H8.6l-4.2,9.1l4.2,9.1h113l4-9.1L121.6,79.5z"/>
		<path class="st4" d="M28.8,73.6c-0.1,0-0.1,0-0.2-0.1c-0.1-0.1-0.1-0.1-0.1-0.2V57.5c0-0.1,0-0.1,0.1-0.2c0.1-0.1,0.1-0.1,0.2-0.1
			h2.8c0.1,0,0.1,0,0.2,0.1c0.1,0.1,0.1,0.1,0.1,0.2v13.2c0,0.1,0,0.1,0.1,0.1h7.7c0.1,0,0.1,0,0.2,0.1c0.1,0.1,0.1,0.1,0.1,0.2v2.3
			c0,0.1,0,0.1-0.1,0.2c-0.1,0.1-0.1,0.1-0.2,0.1C39.6,73.6,28.8,73.6,28.8,73.6z M52.4,66.3c0.1,0.6,0.1,1.3,0.1,2
			c0,0.2-0.1,0.3-0.3,0.3h-7.3c-0.1,0-0.1,0-0.1,0.1c0,0.3,0.1,0.6,0.2,0.9c0.4,0.9,1.2,1.3,2.5,1.3c1,0,1.8-0.4,2.4-1.2
			c0.1-0.1,0.1-0.1,0.2-0.1c0.1,0,0.1,0,0.2,0.1l1.7,1.7c0.1,0.1,0.1,0.1,0.1,0.2c0,0,0,0.1-0.1,0.2c-0.5,0.6-1.2,1.1-2,1.5
			c-0.8,0.3-1.7,0.5-2.7,0.5c-1.3,0-2.5-0.3-3.4-0.9c-0.9-0.6-1.6-1.5-2-2.6c-0.3-0.8-0.5-1.8-0.5-3.1c0-0.9,0.1-1.6,0.4-2.3
			c0.4-1.1,1-2,1.9-2.7c0.9-0.7,2-1,3.2-1c1.6,0,2.8,0.5,3.8,1.4C51.6,63.6,52.2,64.8,52.4,66.3z M46.9,64.2c-1,0-1.6,0.5-2,1.4
			c-0.1,0.2-0.1,0.5-0.2,0.8c0,0.1,0,0.1,0.1,0.1H49c0.1,0,0.1,0,0.1-0.1C49,65.9,49,65.7,49,65.7c-0.1-0.5-0.4-0.8-0.7-1.1
			C47.9,64.3,47.5,64.2,46.9,64.2z M59.2,61.4c1,0,1.9,0.2,2.7,0.5c0.8,0.3,1.4,0.8,1.9,1.4c0.4,0.6,0.7,1.3,0.7,2v8
			c0,0.1,0,0.1-0.1,0.2c-0.1,0.1-0.1,0.1-0.2,0.1h-2.8c-0.1,0-0.1,0-0.2-0.1c-0.1-0.1-0.1-0.1-0.1-0.2v-0.8c0,0,0-0.1,0-0.1
			c0,0-0.1,0-0.1,0c-0.7,0.9-1.7,1.3-3.2,1.3c-1.2,0-2.2-0.3-3-0.9c-0.8-0.6-1.1-1.5-1.1-2.6c0-1.2,0.4-2.1,1.3-2.8
			c0.8-0.7,2-1,3.6-1h2.4c0.1,0,0.1,0,0.1-0.1v-0.5c0-0.5-0.2-0.9-0.5-1.2c-0.3-0.3-0.8-0.4-1.4-0.4c-0.5,0-0.9,0.1-1.2,0.3
			c-0.3,0.2-0.5,0.4-0.6,0.7c0,0.2-0.1,0.3-0.3,0.2l-2.8-0.4c-0.2,0-0.3-0.1-0.3-0.2c0.1-0.7,0.3-1.3,0.8-1.8
			c0.5-0.5,1.1-0.9,1.8-1.2C57.5,61.5,58.3,61.4,59.2,61.4z M58.8,71.3c0.7,0,1.2-0.2,1.7-0.5c0.5-0.4,0.7-0.8,0.7-1.4v-0.8
			c0-0.1,0-0.1-0.1-0.1h-1.7c-0.7,0-1.3,0.1-1.7,0.4c-0.4,0.3-0.6,0.6-0.6,1.1c0,0.4,0.1,0.8,0.4,1C57.9,71.2,58.3,71.3,58.8,71.3z
			 M74.3,57.5c0-0.1,0-0.1,0.1-0.2c0.1-0.1,0.1-0.1,0.2-0.1h2.8c0.1,0,0.1,0,0.2,0.1c0.1,0.1,0.1,0.1,0.1,0.2v15.9
			c0,0.1,0,0.1-0.1,0.2c-0.1,0.1-0.1,0.1-0.2,0.1h-2.8c-0.1,0-0.1,0-0.2-0.1c-0.1-0.1-0.1-0.1-0.1-0.2v-0.8c0,0,0-0.1-0.1-0.1
			s-0.1,0-0.1,0c-0.7,0.9-1.6,1.3-2.7,1.3c-1.1,0-2-0.3-2.8-0.9c-0.8-0.6-1.4-1.4-1.7-2.5c-0.3-0.8-0.4-1.8-0.4-2.8
			c0-1.1,0.1-2.1,0.4-2.9c0.4-1,0.9-1.8,1.7-2.4c0.8-0.6,1.7-0.9,2.9-0.9c1.1,0,2,0.4,2.6,1.2c0,0.1,0.1,0.1,0.1,0.1s0.1,0,0.1-0.1
			C74.3,62.5,74.3,57.5,74.3,57.5z M73.8,70c0.3-0.6,0.5-1.4,0.5-2.4c0-1-0.2-1.9-0.5-2.5c-0.4-0.6-0.9-0.9-1.6-0.9
			c-0.7,0-1.3,0.3-1.7,0.9c-0.4,0.6-0.6,1.4-0.6,2.5c0,0.9,0.2,1.7,0.5,2.3c0.4,0.7,1,1,1.7,1C72.9,71,73.4,70.6,73.8,70z
			 M90.8,66.3c0.1,0.6,0.1,1.3,0.1,2c0,0.2-0.1,0.3-0.3,0.3h-7.3c-0.1,0-0.1,0-0.1,0.1c0,0.3,0.1,0.6,0.2,0.9
			c0.4,0.9,1.2,1.3,2.5,1.3c1,0,1.8-0.4,2.4-1.2c0.1-0.1,0.1-0.1,0.2-0.1c0.1,0,0.1,0,0.2,0.1l1.7,1.7c0.1,0.1,0.1,0.1,0.1,0.2
			c0,0,0,0.1-0.1,0.2c-0.5,0.6-1.2,1.1-2,1.5c-0.8,0.3-1.7,0.5-2.7,0.5c-1.3,0-2.5-0.3-3.4-0.9s-1.6-1.5-2-2.6
			c-0.3-0.8-0.5-1.8-0.5-3.1c0-0.9,0.1-1.6,0.4-2.3c0.4-1.1,1-2,1.9-2.7c0.9-0.7,2-1,3.2-1c1.6,0,2.8,0.5,3.8,1.4
			C90,63.6,90.6,64.8,90.8,66.3z M85.3,64.2c-1,0-1.6,0.5-2,1.4c-0.1,0.2-0.1,0.5-0.2,0.8c0,0.1,0,0.1,0.1,0.1h4.1
			c0.1,0,0.1,0,0.1-0.1c-0.1-0.5-0.1-0.7-0.1-0.7c-0.1-0.5-0.4-0.8-0.7-1.1C86.3,64.3,85.9,64.2,85.3,64.2z M99,61.4
			c0.6,0,1,0.1,1.3,0.3c0.1,0.1,0.2,0.2,0.1,0.4l-0.5,2.7c0,0.2-0.1,0.2-0.3,0.2c-0.2-0.1-0.5-0.1-0.8-0.1c-0.1,0-0.3,0-0.5,0.1
			c-0.6,0-1,0.2-1.4,0.6c-0.4,0.4-0.6,0.9-0.6,1.5v6.4c0,0.1,0,0.1-0.1,0.2c-0.1,0.1-0.1,0.1-0.2,0.1h-2.7c-0.1,0-0.1,0-0.2-0.1
			c-0.1-0.1-0.1-0.1-0.1-0.2V61.8c0-0.1,0-0.1,0.1-0.2c0.1-0.1,0.1-0.1,0.2-0.1H96c0.1,0,0.1,0,0.2,0.1c0.1,0.1,0.1,0.1,0.1,0.2v0.9
			c0,0,0,0.1,0,0.1c0,0,0.1,0,0.1,0C97,61.9,97.9,61.4,99,61.4z"/>
		<path class="st0" d="M56.7,85.7c0,0,0,0.1-0.1,0.1c0,0-0.1,0.1-0.1,0.1h-4.4c0,0-0.1,0-0.1,0.1v2.4c0,0,0,0.1,0.1,0.1h3
			c0,0,0.1,0,0.1,0c0,0,0,0.1,0,0.1v1c0,0,0,0.1,0,0.1c0,0-0.1,0-0.1,0h-3c0,0-0.1,0-0.1,0.1v3.7c0,0,0,0.1-0.1,0.1
			c0,0-0.1,0.1-0.1,0.1h-1.2c0,0-0.1,0-0.1-0.1c0,0-0.1-0.1-0.1-0.1v-8.8c0,0,0-0.1,0.1-0.1c0,0,0.1-0.1,0.1-0.1h5.9
			c0,0,0.1,0,0.1,0.1c0,0,0.1,0.1,0.1,0.1C56.7,84.7,56.7,85.7,56.7,85.7z M62.6,93.7c-0.1,0-0.1,0-0.2-0.1L62,92.2
			c0,0,0-0.1-0.1-0.1h-3.4c0,0,0,0-0.1,0.1L58,93.6c0,0.1-0.1,0.1-0.2,0.1h-1.3c-0.1,0-0.1,0-0.1-0.1c0,0,0-0.1,0-0.1l2.8-8.8
			c0-0.1,0.1-0.1,0.2-0.1H61c0.1,0,0.1,0,0.2,0.1l2.8,8.8c0,0,0,0,0,0.1c0,0.1,0,0.1-0.1,0.1H62.6z M58.8,90.9
			C58.8,90.9,58.9,91,58.8,90.9l2.7,0.1c0.1,0,0.1,0,0.1-0.1l-1.3-4.4c0,0,0-0.1,0-0.1c0,0,0,0,0,0.1C60.2,86.5,58.8,90.9,58.8,90.9
			z M65.6,93.7c0,0-0.1,0-0.1-0.1c0,0-0.1-0.1-0.1-0.1v-8.8c0,0,0-0.1,0.1-0.1c0,0,0.1-0.1,0.1-0.1h1.2c0,0,0.1,0,0.1,0.1
			c0,0,0,0.1,0,0.1v7.6c0,0,0,0.1,0.1,0.1h4.4c0,0,0.1,0,0.1,0.1c0,0,0.1,0.1,0.1,0.1v1c0,0,0,0.1-0.1,0.1c0,0-0.1,0.1-0.1,0.1
			C71.4,93.7,65.6,93.7,65.6,93.7z M73,93.7c0,0-0.1,0-0.1-0.1c0,0-0.1-0.1-0.1-0.1v-8.8c0,0,0-0.1,0.1-0.1c0,0,0.1-0.1,0.1-0.1h1.2
			c0,0,0.1,0,0.1,0.1c0,0,0,0.1,0,0.1v7.6c0,0,0,0.1,0.1,0.1h4.4c0,0,0.1,0,0.1,0.1c0,0,0,0.1,0,0.1v1c0,0,0,0.1,0,0.1
			c0,0-0.1,0.1-0.1,0.1C78.8,93.7,73,93.7,73,93.7z"/>
		<path class="st4" d="M48.3,117.3C48.2,117.3,48.2,117.3,48.3,117.3c0,0.1,0,0.1,0.1,0.1h5.1c0.1,0,0.1,0,0.2,0.1
			c0.1,0,0.1,0.1,0.1,0.2v1.8c0,0.1,0,0.1-0.1,0.2c0,0-0.1,0.1-0.2,0.1h-8.5c-0.1,0-0.1,0-0.2-0.1c0,0-0.1-0.1-0.1-0.2v-1.7
			c0-0.1,0-0.2,0.1-0.3c0.6-0.6,1.2-1.3,1.9-2c0.6-0.7,1-1.2,1.2-1.3c0.3-0.4,0.7-0.8,1.1-1.2c1.1-1.3,1.7-2.2,1.7-2.8
			c0-0.4-0.2-0.8-0.5-1.1c-0.3-0.3-0.7-0.4-1.2-0.4s-0.9,0.1-1.2,0.4c-0.3,0.3-0.5,0.7-0.5,1.1v0.5c0,0.1,0,0.1-0.1,0.2
			s-0.1,0.1-0.2,0.1h-2.2c-0.1,0-0.1,0-0.2-0.1c-0.1,0-0.1-0.1-0.1-0.2v-0.9c0-0.7,0.3-1.3,0.7-1.8c0.4-0.5,0.9-0.9,1.6-1.2
			c0.7-0.3,1.4-0.4,2.2-0.4c0.9,0,1.7,0.2,2.3,0.5c0.7,0.3,1.2,0.8,1.5,1.3c0.4,0.6,0.5,1.2,0.5,1.9c0,0.5-0.1,1.1-0.4,1.6
			c-0.3,0.6-0.7,1.2-1.2,1.8c-0.4,0.5-0.8,1-1.3,1.5c-0.5,0.5-1.1,1.2-2,2.1L48.3,117.3L48.3,117.3z M59.8,119.9
			c-1.4,0-2.5-0.4-3.3-1.2c-0.8-0.8-1.2-1.8-1.2-3.2v-5c0-1.3,0.4-2.4,1.2-3.1c0.8-0.8,1.9-1.2,3.3-1.2c1.4,0,2.5,0.4,3.3,1.2
			c0.8,0.8,1.2,1.8,1.2,3.1v5c0,1.3-0.4,2.4-1.2,3.2C62.3,119.5,61.2,119.9,59.8,119.9z M59.8,117.6c0.6,0,1-0.2,1.3-0.5
			c0.3-0.3,0.5-0.8,0.5-1.4v-5.2c0-0.6-0.2-1-0.5-1.4c-0.3-0.3-0.8-0.5-1.3-0.5c-0.6,0-1,0.2-1.3,0.5c-0.3,0.3-0.5,0.8-0.5,1.4v5.2
			c0,0.6,0.2,1,0.5,1.4C58.8,117.4,59.3,117.6,59.8,117.6z M69.6,117.3C69.6,117.3,69.6,117.3,69.6,117.3c0,0.1,0,0.1,0.1,0.1h5.1
			c0.1,0,0.1,0,0.2,0.1c0,0,0.1,0.1,0.1,0.2v1.8c0,0.1,0,0.1-0.1,0.2c0,0-0.1,0.1-0.2,0.1h-8.5c-0.1,0-0.1,0-0.2-0.1
			c0,0-0.1-0.1-0.1-0.2v-1.7c0-0.1,0-0.2,0.1-0.3c0.6-0.6,1.3-1.3,1.9-2c0.6-0.7,1-1.2,1.2-1.3c0.4-0.4,0.7-0.8,1.1-1.2
			c1.1-1.3,1.7-2.2,1.7-2.8c0-0.4-0.2-0.8-0.5-1.1c-0.3-0.3-0.7-0.4-1.2-0.4c-0.5,0-0.9,0.1-1.2,0.4c-0.3,0.3-0.5,0.7-0.5,1.1v0.5
			c0,0.1,0,0.1-0.1,0.2s-0.1,0.1-0.2,0.1h-2.2c-0.1,0-0.1,0-0.2-0.1s-0.1-0.1-0.1-0.2v-0.9c0-0.7,0.2-1.3,0.6-1.8
			c0.4-0.5,0.9-0.9,1.6-1.2s1.4-0.4,2.2-0.4c0.9,0,1.7,0.2,2.3,0.5c0.7,0.3,1.2,0.8,1.5,1.3c0.4,0.6,0.5,1.2,0.5,1.9
			c0,0.5-0.1,1.1-0.4,1.6c-0.3,0.6-0.7,1.2-1.2,1.8c-0.4,0.5-0.8,1-1.3,1.5c-0.5,0.5-1.1,1.2-2,2.1L69.6,117.3L69.6,117.3z
			 M84.6,113.4c0.3,0.6,0.4,1.2,0.4,2c0,0.7-0.1,1.3-0.3,1.9c-0.3,0.8-0.8,1.4-1.5,1.9c-0.7,0.5-1.6,0.7-2.5,0.7
			c-1,0-1.8-0.2-2.5-0.7c-0.7-0.5-1.2-1.1-1.6-2c-0.2-0.5-0.3-1-0.3-1.6c0-0.1,0.1-0.2,0.2-0.2h2.2c0.1,0,0.2,0.1,0.2,0.2
			c0.1,0.4,0.1,0.7,0.2,0.9c0.1,0.3,0.3,0.6,0.6,0.8c0.3,0.2,0.6,0.3,0.9,0.3c0.7,0,1.2-0.3,1.5-0.9c0.2-0.4,0.3-0.8,0.3-1.3
			c0-0.6-0.1-1.1-0.3-1.5c-0.3-0.6-0.8-0.9-1.4-0.9c-0.1,0-0.3,0-0.4,0.1c-0.1,0.1-0.3,0.2-0.5,0.4c-0.1,0-0.1,0.1-0.1,0.1
			c-0.1,0-0.1,0-0.2-0.1l-1.1-1.6c0,0,0-0.1,0-0.1c0-0.1,0-0.1,0.1-0.2l3-2.6c0,0,0-0.1,0-0.1c0,0,0,0-0.1,0h-4.4
			c-0.1,0-0.1,0-0.2-0.1c0,0-0.1-0.1-0.1-0.2v-1.8c0-0.1,0-0.1,0.1-0.2c0.1,0,0.1-0.1,0.2-0.1h7.9c0.1,0,0.1,0,0.2,0.1
			s0.1,0.1,0.1,0.2v2.1c0,0.1,0,0.2-0.1,0.3l-2.5,2.3c0,0,0,0,0,0.1c0,0,0,0,0.1,0C83.3,111.6,84.1,112.3,84.6,113.4L84.6,113.4z"/>
	</g>
</g>
<g id="Layer_2">
</g>
</svg>
