<svg width="20" height="20" fill="none" xmlns="http://www.w3.org/2000/svg"><g clip-path="url(#clip0_4235_154486)"><path d="M16.546 2H3.455A1.455 1.455 0 002 3.455v13.09A1.455 1.455 0 003.455 18h13.09A1.455 1.455 0 0018 16.546V3.455A1.454 1.454 0 0016.546 2zm-.953 6.887c-.095.008-.19.008-.284 0a3.099 3.099 0 01-2.603-1.403v4.785A3.534 3.534 0 119.17 8.735h.218v1.745H9.17a1.818 1.818 0 000 3.636 1.847 1.847 0 001.876-1.781V4.21h1.659a3.105 3.105 0 002.865 2.77l.022 1.906z" fill="#151417"/></g><defs><clipPath id="clip0_4235_154486"><path fill="#fff" transform="translate(2 2)" d="M0 0h16v16H0z"/></clipPath></defs></svg>