<svg width="20" height="20" fill="none" xmlns="http://www.w3.org/2000/svg"><path d="M19 4.657a6.869 6.869 0 01-2.003.557 3.533 3.533 0 001.533-1.956c-.674.405-1.42.7-2.214.858A3.462 3.462 0 0013.77 3c-1.926 0-3.488 1.582-3.488 3.534 0 .277.031.547.09.806-2.898-.148-5.468-1.555-7.188-3.693a3.552 3.552 0 00-.472 1.777c0 1.226.615 2.308 1.551 2.942a3.443 3.443 0 01-1.58-.443v.045c0 1.712 1.202 3.14 2.798 3.466a3.465 3.465 0 01-1.575.06c.444 1.404 1.732 2.426 3.258 2.454A6.939 6.939 0 012 15.412 9.775 9.775 0 007.346 17c6.416 0 9.924-5.385 9.924-10.056 0-.153-.003-.306-.01-.458A7.116 7.116 0 0019 4.657z" fill="#151417"/></svg>