<svg width="20" height="20" fill="none" xmlns="http://www.w3.org/2000/svg"><path d="M19.602 5.03a2.315 2.315 0 00-.615-1.04 2.395 2.395 0 00-1.064-.602C16.44 3 10.498 3 10.498 3s-5.942 0-7.424.388a2.4 2.4 0 00-1.063.602 2.315 2.315 0 00-.615 1.04C1 6.48 1 9.5 1 9.5s0 3.022.397 4.47a2.3 2.3 0 00.615 1.04c.295.289.662.496 1.065.602C4.558 16 10.5 16 10.5 16s5.941 0 7.423-.388c.402-.106.77-.314 1.064-.602.294-.288.506-.647.614-1.04C20 12.52 20 9.5 20 9.5s.002-3.022-.398-4.47z" fill="#151417"/><path d="M9 13l5-3-5-3v6z" fill="#fff"/></svg>